<svg xmlns="http://www.w3.org/2000/svg" viewBox="0 0 1200 900">
  <defs>
    <marker id="arrow" markerWidth="10" markerHeight="7" refX="10" refY="3.5" orient="auto">
      <polygon points="0 0, 10 3.5, 0 7" fill="#aabbcc"/>
    </marker>
    <clipPath id="planet-clip"><circle cx="480" cy="420" r="250"/></clipPath>
    <style>
      text { font-family: 'Segoe UI', Arial, sans-serif; }
      .title { font-size: 28px; font-weight: bold; fill: #e8d8a0; letter-spacing: 3px; }
      .subtitle { font-size: 13px; fill: #8899aa; }
      .label { font-size: 14px; font-weight: bold; fill: #ffffff; }
      .label-sm { font-size: 11px; fill: #ccddee; }
      .callout { font-size: 16px; font-weight: bold; fill: #f0c040; }
      .step-text { font-size: 10px; fill: #ccddee; }
      .step-num { font-size: 10px; fill: #f0c040; font-weight: bold; }
    </style>
  </defs>

  <!-- Background -->
  <rect width="1200" height="900" fill="#0f1118"/>

  <!-- Title -->
  <text x="600" y="40" text-anchor="middle" class="title">BOARD SETUP GUIDE</text>
  <text x="600" y="58" text-anchor="middle" class="subtitle">W.A.R H.A.M.S — The Battle for Planet X</text>
  <line x1="350" y1="65" x2="850" y2="65" stroke="#334455" stroke-width="1"/>

  <!-- ==================== CENTER: Planet Board ==================== -->
  <!-- Planet Frame -->
  <circle cx="480" cy="420" r="248" fill="#0a0e15"/>
  <circle cx="480" cy="420" r="250" fill="none" stroke="#556677" stroke-width="5"/>

  <!-- 5 puzzle piece seam markers (72° intervals from top) -->
  <line x1="480.0" y1="170.0" x2="480.0" y2="160.0" stroke="#e8d8a0" stroke-width="2"/>
  <circle cx="480.0" cy="170.0" r="4" fill="#e8d8a0"/>
  <line x1="717.8" y1="342.7" x2="727.3" y2="339.7" stroke="#e8d8a0" stroke-width="2"/>
  <circle cx="717.8" cy="342.7" r="4" fill="#e8d8a0"/>
  <line x1="626.9" y1="622.3" x2="632.8" y2="630.3" stroke="#e8d8a0" stroke-width="2"/>
  <circle cx="626.9" cy="622.3" r="4" fill="#e8d8a0"/>
  <line x1="333.1" y1="622.3" x2="327.2" y2="630.3" stroke="#e8d8a0" stroke-width="2"/>
  <circle cx="333.1" cy="622.3" r="4" fill="#e8d8a0"/>
  <line x1="242.2" y1="342.7" x2="232.7" y2="339.7" stroke="#e8d8a0" stroke-width="2"/>
  <circle cx="242.2" cy="342.7" r="4" fill="#e8d8a0"/>

  <!-- Puzzle piece labels -->
  <text x="612.3" y="238.0" text-anchor="middle" font-size="8" fill="#e8d8a0" opacity="0.6">P1</text>
  <text x="694.0" y="489.5" text-anchor="middle" font-size="8" fill="#e8d8a0" opacity="0.6">P2</text>
  <text x="480.0" y="645.0" text-anchor="middle" font-size="8" fill="#e8d8a0" opacity="0.6">P3</text>
  <text x="266.0" y="489.5" text-anchor="middle" font-size="8" fill="#e8d8a0" opacity="0.6">P4</text>
  <text x="347.7" y="238.0" text-anchor="middle" font-size="8" fill="#e8d8a0" opacity="0.6">P5</text>

  <text x="480" y="95" text-anchor="middle" class="callout">① Planet Frame</text>
  <text x="480" y="110" text-anchor="middle" class="label-sm">5 interlocking puzzle pieces · 61 hexes fill entire interior</text>
  <text x="480" y="130" text-anchor="middle" font-size="9" fill="#8899aa" font-style="italic">Board wrapping: matching labels on opposite edges connect (A1↔A1, B2↔B2, etc.)</text>

  <!-- Entry point labels (each pair directly across the circle) -->
  <text x="515.0" y="154.3" text-anchor="middle" font-size="9" font-weight="bold" fill="#f0c040">A1</text>
  <text x="445.0" y="685.7" text-anchor="middle" font-size="9" font-weight="bold" fill="#f0c040">A1</text>
  <text x="582.6" y="172.4" text-anchor="middle" font-size="9" font-weight="bold" fill="#f0c040">A2</text>
  <text x="377.4" y="667.6" text-anchor="middle" font-size="9" font-weight="bold" fill="#f0c040">A2</text>
  <text x="643.1" y="207.4" text-anchor="middle" font-size="9" font-weight="bold" fill="#f0c040">A3</text>
  <text x="316.9" y="632.6" text-anchor="middle" font-size="9" font-weight="bold" fill="#f0c040">A3</text>
  <text x="692.6" y="256.9" text-anchor="middle" font-size="9" font-weight="bold" fill="#f0c040">A4</text>
  <text x="267.4" y="583.1" text-anchor="middle" font-size="9" font-weight="bold" fill="#f0c040">A4</text>
  <text x="727.6" y="317.4" text-anchor="middle" font-size="9" font-weight="bold" fill="#66ccff">B1</text>
  <text x="232.4" y="522.6" text-anchor="middle" font-size="9" font-weight="bold" fill="#66ccff">B1</text>
  <text x="745.7" y="385.0" text-anchor="middle" font-size="9" font-weight="bold" fill="#66ccff">B2</text>
  <text x="214.3" y="455.0" text-anchor="middle" font-size="9" font-weight="bold" fill="#66ccff">B2</text>
  <text x="745.7" y="455.0" text-anchor="middle" font-size="9" font-weight="bold" fill="#66ccff">B3</text>
  <text x="214.3" y="385.0" text-anchor="middle" font-size="9" font-weight="bold" fill="#66ccff">B3</text>
  <text x="727.6" y="522.6" text-anchor="middle" font-size="9" font-weight="bold" fill="#66ccff">B4</text>
  <text x="232.4" y="317.4" text-anchor="middle" font-size="9" font-weight="bold" fill="#66ccff">B4</text>
  <text x="692.6" y="583.1" text-anchor="middle" font-size="9" font-weight="bold" fill="#ff8866">C1</text>
  <text x="267.4" y="256.9" text-anchor="middle" font-size="9" font-weight="bold" fill="#ff8866">C1</text>
  <text x="643.1" y="632.6" text-anchor="middle" font-size="9" font-weight="bold" fill="#ff8866">C2</text>
  <text x="316.9" y="207.4" text-anchor="middle" font-size="9" font-weight="bold" fill="#ff8866">C2</text>
  <text x="582.6" y="667.6" text-anchor="middle" font-size="9" font-weight="bold" fill="#ff8866">C3</text>
  <text x="377.4" y="172.4" text-anchor="middle" font-size="9" font-weight="bold" fill="#ff8866">C3</text>
  <text x="515.0" y="685.7" text-anchor="middle" font-size="9" font-weight="bold" fill="#ff8866">C4</text>
  <text x="445.0" y="154.3" text-anchor="middle" font-size="9" font-weight="bold" fill="#ff8866">C4</text>

  <!-- 61 hex tiles (clipped to planet circle) -->
  <g clip-path="url(#planet-clip)">
  <g transform="translate(369.5,228.1) scale(1.4535)">
    <polygon points="0,-22 19,-11 19,11 0,22 -19,11 -19,-11" fill="#0d1520" stroke="#8833cc" stroke-width="3"/>
    <text x="0" y="4" text-anchor="middle" font-size="6" fill="#bb77ee">SPACE</text>
  </g>
  <g transform="translate(424.8,228.1) scale(1.4535)">
    <polygon points="0,-22 19,-11 19,11 0,22 -19,11 -19,-11" fill="#0d1520" stroke="#334455" stroke-width="1"/>
  </g>
  <g transform="translate(480.0,228.1) scale(1.4535)">
    <polygon points="0,-22 19,-11 19,11 0,22 -19,11 -19,-11" fill="#0d1520" stroke="#334455" stroke-width="1"/>
  </g>
  <g transform="translate(535.2,228.1) scale(1.4535)">
    <polygon points="0,-22 19,-11 19,11 0,22 -19,11 -19,-11" fill="#0d1520" stroke="#f5c518" stroke-width="3"/>
    <text x="0" y="4" text-anchor="middle" font-size="7" fill="#f5c518">PWR</text>
    <circle cx="0" cy="14" r="6" fill="#1a1a2e" stroke="#666" stroke-width="1"/>
    <text x="0" y="17" text-anchor="middle" font-size="7" fill="#fff">5</text>
  </g>
  <g transform="translate(590.5,228.1) scale(1.4535)">
    <polygon points="0,-22 19,-11 19,11 0,22 -19,11 -19,-11" fill="#0d1520" stroke="#334455" stroke-width="1"/>
  </g>
  <g transform="translate(341.9,276.1) scale(1.4535)">
    <polygon points="0,-22 19,-11 19,11 0,22 -19,11 -19,-11" fill="#0d1520" stroke="#334455" stroke-width="1"/>
  </g>
  <g transform="translate(397.2,276.1) scale(1.4535)">
    <polygon points="0,-22 19,-11 19,11 0,22 -19,11 -19,-11" fill="#0d1520" stroke="#334455" stroke-width="1"/>
  </g>
  <g transform="translate(452.4,276.1) scale(1.4535)">
    <polygon points="0,-22 19,-11 19,11 0,22 -19,11 -19,-11" fill="#0d1520" stroke="#1a1a1a" stroke-width="3"/>
    <text x="0" y="4" text-anchor="middle" font-size="7" fill="#aaa">OIL</text>
    <circle cx="0" cy="14" r="6" fill="#1a1a2e" stroke="#666" stroke-width="1"/>
    <text x="0" y="17" text-anchor="middle" font-size="7" fill="#fff">3</text>
  </g>
  <g transform="translate(507.6,276.1) scale(1.4535)">
    <polygon points="0,-22 19,-11 19,11 0,22 -19,11 -19,-11" fill="#0d1520" stroke="#22aa44" stroke-width="3"/>
    <text x="0" y="4" text-anchor="middle" font-size="7" fill="#44cc66">CITY</text>
    <circle cx="0" cy="14" r="6" fill="#1a1a2e" stroke="#666" stroke-width="1"/>
    <text x="0" y="17" text-anchor="middle" font-size="7" fill="#fff">4</text>
  </g>
  <g transform="translate(562.8,276.1) scale(1.4535)">
    <polygon points="0,-22 19,-11 19,11 0,22 -19,11 -19,-11" fill="#0d1520" stroke="#334455" stroke-width="1"/>
  </g>
  <g transform="translate(618.1,276.1) scale(1.4535)">
    <polygon points="0,-22 19,-11 19,11 0,22 -19,11 -19,-11" fill="#0d1520" stroke="#334455" stroke-width="1"/>
  </g>
  <g transform="translate(314.3,324.1) scale(1.4535)">
    <polygon points="0,-22 19,-11 19,11 0,22 -19,11 -19,-11" fill="#0d1520" stroke="#334455" stroke-width="1"/>
  </g>
  <g transform="translate(369.5,324.1) scale(1.4535)">
    <polygon points="0,-22 19,-11 19,11 0,22 -19,11 -19,-11" fill="#0d1520" stroke="#2266cc" stroke-width="3"/>
    <text x="0" y="4" text-anchor="middle" font-size="6" fill="#4488ee">RADAR</text>
    <circle cx="0" cy="14" r="6" fill="#1a1a2e" stroke="#666" stroke-width="1"/>
    <text x="0" y="17" text-anchor="middle" font-size="7" fill="#fff">6</text>
  </g>
  <g transform="translate(424.8,324.1) scale(1.4535)">
    <polygon points="0,-22 19,-11 19,11 0,22 -19,11 -19,-11" fill="#0d1520" stroke="#cc2222" stroke-width="3"/>
    <text x="0" y="4" text-anchor="middle" font-size="7" fill="#ee4444">FAC</text>
    <circle cx="0" cy="14" r="6" fill="#1a1a2e" stroke="#666" stroke-width="1"/>
    <text x="0" y="17" text-anchor="middle" font-size="7" fill="#fff">2</text>
  </g>
  <g transform="translate(480.0,324.1) scale(1.4535)">
    <polygon points="0,-22 19,-11 19,11 0,22 -19,11 -19,-11" fill="#0d1520" stroke="#334455" stroke-width="1"/>
  </g>
  <g transform="translate(535.2,324.1) scale(1.4535)">
    <polygon points="0,-22 19,-11 19,11 0,22 -19,11 -19,-11" fill="#0d1520" stroke="#334455" stroke-width="1"/>
  </g>
  <g transform="translate(590.5,324.1) scale(1.4535)">
    <polygon points="0,-22 19,-11 19,11 0,22 -19,11 -19,-11" fill="#0d1520" stroke="#334455" stroke-width="1"/>
  </g>
  <g transform="translate(645.7,324.1) scale(1.4535)">
    <polygon points="0,-22 19,-11 19,11 0,22 -19,11 -19,-11" fill="#0d1520" stroke="#8833cc" stroke-width="3"/>
    <text x="0" y="4" text-anchor="middle" font-size="6" fill="#bb77ee">SPACE</text>
  </g>
  <g transform="translate(286.7,372.0) scale(1.4535)">
    <polygon points="0,-22 19,-11 19,11 0,22 -19,11 -19,-11" fill="#0d1520" stroke="#334455" stroke-width="1"/>
  </g>
  <g transform="translate(341.9,372.0) scale(1.4535)">
    <polygon points="0,-22 19,-11 19,11 0,22 -19,11 -19,-11" fill="#0d1520" stroke="#888888" stroke-width="3"/>
    <text x="0" y="4" text-anchor="middle" font-size="7" fill="#888888">SEP</text>
  </g>
  <g transform="translate(397.2,372.0) scale(1.4535)">
    <polygon points="0,-22 19,-11 19,11 0,22 -19,11 -19,-11" fill="#0d1520" stroke="#334455" stroke-width="1"/>
  </g>
  <g transform="translate(452.4,372.0) scale(1.4535)">
    <polygon points="0,-22 19,-11 19,11 0,22 -19,11 -19,-11" fill="#0d1520" stroke="#334455" stroke-width="1"/>
  </g>
  <g transform="translate(507.6,372.0) scale(1.4535)">
    <polygon points="0,-22 19,-11 19,11 0,22 -19,11 -19,-11" fill="#0d1520" stroke="#334455" stroke-width="1"/>
  </g>
  <g transform="translate(562.8,372.0) scale(1.4535)">
    <polygon points="0,-22 19,-11 19,11 0,22 -19,11 -19,-11" fill="#0d1520" stroke="#cc2222" stroke-width="3"/>
    <text x="0" y="4" text-anchor="middle" font-size="7" fill="#ee4444">FAC</text>
    <circle cx="0" cy="14" r="6" fill="#1a1a2e" stroke="#666" stroke-width="1"/>
    <text x="0" y="17" text-anchor="middle" font-size="7" fill="#fff">4</text>
  </g>
  <g transform="translate(618.1,372.0) scale(1.4535)">
    <polygon points="0,-22 19,-11 19,11 0,22 -19,11 -19,-11" fill="#0d1520" stroke="#334455" stroke-width="1"/>
  </g>
  <g transform="translate(673.3,372.0) scale(1.4535)">
    <polygon points="0,-22 19,-11 19,11 0,22 -19,11 -19,-11" fill="#0d1520" stroke="#334455" stroke-width="1"/>
  </g>
  <g transform="translate(259.1,420.0) scale(1.4535)">
    <polygon points="0,-22 19,-11 19,11 0,22 -19,11 -19,-11" fill="#0d1520" stroke="#334455" stroke-width="1"/>
  </g>
  <g transform="translate(314.3,420.0) scale(1.4535)">
    <polygon points="0,-22 19,-11 19,11 0,22 -19,11 -19,-11" fill="#0d1520" stroke="#334455" stroke-width="1"/>
  </g>
  <g transform="translate(369.5,420.0) scale(1.4535)">
    <polygon points="0,-22 19,-11 19,11 0,22 -19,11 -19,-11" fill="#0d1520" stroke="#334455" stroke-width="1"/>
  </g>
  <g transform="translate(424.8,420.0) scale(1.4535)">
    <polygon points="0,-22 19,-11 19,11 0,22 -19,11 -19,-11" fill="#0d1520" stroke="#f5c518" stroke-width="3"/>
    <text x="0" y="4" text-anchor="middle" font-size="7" fill="#f5c518">PWR</text>
    <circle cx="0" cy="14" r="6" fill="#1a1a2e" stroke="#666" stroke-width="1"/>
    <text x="0" y="17" text-anchor="middle" font-size="7" fill="#fff">1</text>
  </g>
  <g transform="translate(480.0,420.0) scale(1.4535)">
    <polygon points="0,-22 19,-11 19,11 0,22 -19,11 -19,-11" fill="#0d1520" stroke="#334455" stroke-width="1"/>
  </g>
  <g transform="translate(535.2,420.0) scale(1.4535)">
    <polygon points="0,-22 19,-11 19,11 0,22 -19,11 -19,-11" fill="#0d1520" stroke="#334455" stroke-width="1"/>
  </g>
  <g transform="translate(590.5,420.0) scale(1.4535)">
    <polygon points="0,-22 19,-11 19,11 0,22 -19,11 -19,-11" fill="#0d1520" stroke="#334455" stroke-width="1"/>
  </g>
  <g transform="translate(645.7,420.0) scale(1.4535)">
    <polygon points="0,-22 19,-11 19,11 0,22 -19,11 -19,-11" fill="#0d1520" stroke="#888888" stroke-width="3"/>
    <text x="0" y="4" text-anchor="middle" font-size="7" fill="#888888">SEP</text>
  </g>
  <g transform="translate(700.9,420.0) scale(1.4535)">
    <polygon points="0,-22 19,-11 19,11 0,22 -19,11 -19,-11" fill="#0d1520" stroke="#8833cc" stroke-width="3"/>
    <text x="0" y="4" text-anchor="middle" font-size="6" fill="#bb77ee">SPACE</text>
  </g>
  <g transform="translate(286.7,468.0) scale(1.4535)">
    <polygon points="0,-22 19,-11 19,11 0,22 -19,11 -19,-11" fill="#0d1520" stroke="#334455" stroke-width="1"/>
  </g>
  <g transform="translate(341.9,468.0) scale(1.4535)">
    <polygon points="0,-22 19,-11 19,11 0,22 -19,11 -19,-11" fill="#0d1520" stroke="#22aa44" stroke-width="3"/>
    <text x="0" y="4" text-anchor="middle" font-size="7" fill="#44cc66">CITY</text>
    <circle cx="0" cy="14" r="6" fill="#1a1a2e" stroke="#666" stroke-width="1"/>
    <text x="0" y="17" text-anchor="middle" font-size="7" fill="#fff">6</text>
  </g>
  <g transform="translate(397.2,468.0) scale(1.4535)">
    <polygon points="0,-22 19,-11 19,11 0,22 -19,11 -19,-11" fill="#0d1520" stroke="#1a1a1a" stroke-width="3"/>
    <text x="0" y="4" text-anchor="middle" font-size="7" fill="#aaa">OIL</text>
    <circle cx="0" cy="14" r="6" fill="#1a1a2e" stroke="#666" stroke-width="1"/>
    <text x="0" y="17" text-anchor="middle" font-size="7" fill="#fff">1</text>
  </g>
  <g transform="translate(452.4,468.0) scale(1.4535)">
    <polygon points="0,-22 19,-11 19,11 0,22 -19,11 -19,-11" fill="#0d1520" stroke="#334455" stroke-width="1"/>
  </g>
  <g transform="translate(507.6,468.0) scale(1.4535)">
    <polygon points="0,-22 19,-11 19,11 0,22 -19,11 -19,-11" fill="#0d1520" stroke="#334455" stroke-width="1"/>
  </g>
  <g transform="translate(562.8,468.0) scale(1.4535)">
    <polygon points="0,-22 19,-11 19,11 0,22 -19,11 -19,-11" fill="#0d1520" stroke="#2266cc" stroke-width="3"/>
    <text x="0" y="4" text-anchor="middle" font-size="6" fill="#4488ee">RADAR</text>
    <circle cx="0" cy="14" r="6" fill="#1a1a2e" stroke="#666" stroke-width="1"/>
    <text x="0" y="17" text-anchor="middle" font-size="7" fill="#fff">3</text>
  </g>
  <g transform="translate(618.1,468.0) scale(1.4535)">
    <polygon points="0,-22 19,-11 19,11 0,22 -19,11 -19,-11" fill="#0d1520" stroke="#334455" stroke-width="1"/>
  </g>
  <g transform="translate(673.3,468.0) scale(1.4535)">
    <polygon points="0,-22 19,-11 19,11 0,22 -19,11 -19,-11" fill="#0d1520" stroke="#334455" stroke-width="1"/>
  </g>
  <g transform="translate(314.3,515.9) scale(1.4535)">
    <polygon points="0,-22 19,-11 19,11 0,22 -19,11 -19,-11" fill="#0d1520" stroke="#8833cc" stroke-width="3"/>
    <text x="0" y="4" text-anchor="middle" font-size="6" fill="#bb77ee">SPACE</text>
  </g>
  <g transform="translate(369.5,515.9) scale(1.4535)">
    <polygon points="0,-22 19,-11 19,11 0,22 -19,11 -19,-11" fill="#0d1520" stroke="#334455" stroke-width="1"/>
  </g>
  <g transform="translate(424.8,515.9) scale(1.4535)">
    <polygon points="0,-22 19,-11 19,11 0,22 -19,11 -19,-11" fill="#0d1520" stroke="#334455" stroke-width="1"/>
  </g>
  <g transform="translate(480.0,515.9) scale(1.4535)">
    <polygon points="0,-22 19,-11 19,11 0,22 -19,11 -19,-11" fill="#0d1520" stroke="#cc2222" stroke-width="3"/>
    <text x="0" y="4" text-anchor="middle" font-size="7" fill="#ee4444">FAC</text>
    <circle cx="0" cy="14" r="6" fill="#1a1a2e" stroke="#666" stroke-width="1"/>
    <text x="0" y="17" text-anchor="middle" font-size="7" fill="#fff">6</text>
  </g>
  <g transform="translate(535.2,515.9) scale(1.4535)">
    <polygon points="0,-22 19,-11 19,11 0,22 -19,11 -19,-11" fill="#0d1520" stroke="#2266cc" stroke-width="3"/>
    <text x="0" y="4" text-anchor="middle" font-size="6" fill="#4488ee">RADAR</text>
    <circle cx="0" cy="14" r="6" fill="#1a1a2e" stroke="#666" stroke-width="1"/>
    <text x="0" y="17" text-anchor="middle" font-size="7" fill="#fff">4</text>
  </g>
  <g transform="translate(590.5,515.9) scale(1.4535)">
    <polygon points="0,-22 19,-11 19,11 0,22 -19,11 -19,-11" fill="#0d1520" stroke="#334455" stroke-width="1"/>
  </g>
  <g transform="translate(645.7,515.9) scale(1.4535)">
    <polygon points="0,-22 19,-11 19,11 0,22 -19,11 -19,-11" fill="#0d1520" stroke="#334455" stroke-width="1"/>
  </g>
  <g transform="translate(341.9,563.9) scale(1.4535)">
    <polygon points="0,-22 19,-11 19,11 0,22 -19,11 -19,-11" fill="#0d1520" stroke="#888888" stroke-width="3"/>
    <text x="0" y="4" text-anchor="middle" font-size="7" fill="#888888">SEP</text>
  </g>
  <g transform="translate(397.2,563.9) scale(1.4535)">
    <polygon points="0,-22 19,-11 19,11 0,22 -19,11 -19,-11" fill="#0d1520" stroke="#334455" stroke-width="1"/>
  </g>
  <g transform="translate(452.4,563.9) scale(1.4535)">
    <polygon points="0,-22 19,-11 19,11 0,22 -19,11 -19,-11" fill="#0d1520" stroke="#f5c518" stroke-width="3"/>
    <text x="0" y="4" text-anchor="middle" font-size="7" fill="#f5c518">PWR</text>
    <circle cx="0" cy="14" r="6" fill="#1a1a2e" stroke="#666" stroke-width="1"/>
    <text x="0" y="17" text-anchor="middle" font-size="7" fill="#fff">2</text>
  </g>
  <g transform="translate(507.6,563.9) scale(1.4535)">
    <polygon points="0,-22 19,-11 19,11 0,22 -19,11 -19,-11" fill="#0d1520" stroke="#334455" stroke-width="1"/>
  </g>
  <g transform="translate(562.8,563.9) scale(1.4535)">
    <polygon points="0,-22 19,-11 19,11 0,22 -19,11 -19,-11" fill="#0d1520" stroke="#1a1a1a" stroke-width="3"/>
    <text x="0" y="4" text-anchor="middle" font-size="7" fill="#aaa">OIL</text>
    <circle cx="0" cy="14" r="6" fill="#1a1a2e" stroke="#666" stroke-width="1"/>
    <text x="0" y="17" text-anchor="middle" font-size="7" fill="#fff">5</text>
  </g>
  <g transform="translate(618.1,563.9) scale(1.4535)">
    <polygon points="0,-22 19,-11 19,11 0,22 -19,11 -19,-11" fill="#0d1520" stroke="#22aa44" stroke-width="3"/>
    <text x="0" y="4" text-anchor="middle" font-size="7" fill="#44cc66">CITY</text>
    <circle cx="0" cy="14" r="6" fill="#1a1a2e" stroke="#666" stroke-width="1"/>
    <text x="0" y="17" text-anchor="middle" font-size="7" fill="#fff">2</text>
  </g>
  <g transform="translate(369.5,611.9) scale(1.4535)">
    <polygon points="0,-22 19,-11 19,11 0,22 -19,11 -19,-11" fill="#0d1520" stroke="#8833cc" stroke-width="3"/>
    <text x="0" y="4" text-anchor="middle" font-size="6" fill="#bb77ee">SPACE</text>
  </g>
  <g transform="translate(424.8,611.9) scale(1.4535)">
    <polygon points="0,-22 19,-11 19,11 0,22 -19,11 -19,-11" fill="#0d1520" stroke="#334455" stroke-width="1"/>
  </g>
  <g transform="translate(480.0,611.9) scale(1.4535)">
    <polygon points="0,-22 19,-11 19,11 0,22 -19,11 -19,-11" fill="#0d1520" stroke="#334455" stroke-width="1"/>
  </g>
  <g transform="translate(535.2,611.9) scale(1.4535)">
    <polygon points="0,-22 19,-11 19,11 0,22 -19,11 -19,-11" fill="#0d1520" stroke="#334455" stroke-width="1"/>
  </g>
  <g transform="translate(590.5,611.9) scale(1.4535)">
    <polygon points="0,-22 19,-11 19,11 0,22 -19,11 -19,-11" fill="#0d1520" stroke="#8833cc" stroke-width="3"/>
    <text x="0" y="4" text-anchor="middle" font-size="6" fill="#bb77ee">SPACE</text>
  </g>
  </g>

  <!-- Hex Legend -->
  <g transform="translate(290,695)">
    <text x="0" y="0" font-size="10" fill="#ccddee" font-weight="bold">HEX LEGEND:</text>
    <polygon points="15,15 24,10 24,20 15,25 6,20 6,10" fill="none" stroke="#1a1a1a" stroke-width="2"/>
    <text x="36" y="20" font-size="9" fill="#aaa">Oil Rig</text>
    <polygon points="80,15 89,10 89,20 80,25 71,20 71,10" fill="none" stroke="#f5c518" stroke-width="2"/>
    <text x="101" y="20" font-size="9" fill="#aaa">Power</text>
    <polygon points="140,15 149,10 149,20 140,25 131,20 131,10" fill="none" stroke="#cc2222" stroke-width="2"/>
    <text x="161" y="20" font-size="9" fill="#aaa">Factory</text>
    <polygon points="208,15 217,10 217,20 208,25 199,20 199,10" fill="none" stroke="#2266cc" stroke-width="2"/>
    <text x="229" y="20" font-size="9" fill="#aaa">Radar</text>
    <polygon points="268,15 277,10 277,20 268,25 259,20 259,10" fill="none" stroke="#22aa44" stroke-width="2"/>
    <text x="289" y="20" font-size="9" fill="#aaa">City</text>
  </g>
  <g transform="translate(290,720)">
    <polygon points="15,15 24,10 24,20 15,25 6,20 6,10" fill="none" stroke="#888888" stroke-width="2"/>
    <text x="36" y="20" font-size="9" fill="#aaa">Separatist</text>
    <polygon points="100,15 109,10 109,20 100,25 91,20 91,10" fill="none" stroke="#8833cc" stroke-width="2"/>
    <text x="121" y="20" font-size="9" fill="#aaa">Spaceport</text>
    <polygon points="188,15 197,10 197,20 188,25 179,20 179,10" fill="none" stroke="#334455" stroke-width="1"/>
    <text x="209" y="20" font-size="9" fill="#aaa">Terrain</text>
    <circle cx="268" cy="16" r="7" fill="#1a1a2e" stroke="#666" stroke-width="1"/>
    <text x="266" y="19" text-anchor="middle" font-size="7" fill="#fff">#</text>
    <text x="289" y="20" font-size="9" fill="#aaa">Number Token</text>
  </g>

  <!-- ==================== RIGHT: Card Areas ==================== -->
  <text x="820" y="145" text-anchor="middle" class="callout">② Spaceport Deck</text>
  <rect x="790" y="155" width="60" height="85" rx="4" fill="#1a1d28" stroke="#556677" stroke-width="2"/>
  <text x="820" y="195" text-anchor="middle" font-size="9" fill="#8899aa">BAC</text>
  <text x="820" y="207" text-anchor="middle" font-size="8" fill="#667788">DECK</text>
  <text x="820" y="220" text-anchor="middle" font-size="7" fill="#556677">face-down</text>

  <text x="990" y="145" text-anchor="middle" class="callout">③ Planet Bound Area</text>
  <text x="990" y="160" text-anchor="middle" class="label-sm">6 face-up BAC cards</text>
  <g transform="translate(870,170)">
    <rect x="0" y="0" width="38" height="55" rx="3" fill="#1e2235" stroke="#8899aa" stroke-width="1.5"/>
    <text x="19" y="30" text-anchor="middle" font-size="8" fill="#aabbcc">BAC</text>
  </g>
  <g transform="translate(912,170)">
    <rect x="0" y="0" width="38" height="55" rx="3" fill="#1e2235" stroke="#8899aa" stroke-width="1.5"/>
    <text x="19" y="30" text-anchor="middle" font-size="8" fill="#aabbcc">BAC</text>
  </g>
  <g transform="translate(954,170)">
    <rect x="0" y="0" width="38" height="55" rx="3" fill="#1e2235" stroke="#8899aa" stroke-width="1.5"/>
    <text x="19" y="30" text-anchor="middle" font-size="8" fill="#aabbcc">BAC</text>
  </g>
  <g transform="translate(996,170)">
    <rect x="0" y="0" width="38" height="55" rx="3" fill="#1e2235" stroke="#8899aa" stroke-width="1.5"/>
    <text x="19" y="30" text-anchor="middle" font-size="8" fill="#aabbcc">BAC</text>
  </g>
  <g transform="translate(1038,170)">
    <rect x="0" y="0" width="38" height="55" rx="3" fill="#1e2235" stroke="#8899aa" stroke-width="1.5"/>
    <text x="19" y="30" text-anchor="middle" font-size="8" fill="#aabbcc">BAC</text>
  </g>
  <g transform="translate(1080,170)">
    <rect x="0" y="0" width="38" height="55" rx="3" fill="#1e2235" stroke="#8899aa" stroke-width="1.5"/>
    <text x="19" y="30" text-anchor="middle" font-size="8" fill="#aabbcc">BAC</text>
  </g>

  <text x="820" y="285" text-anchor="middle" class="callout">④ Conspire Deck</text>
  <rect x="790" y="295" width="60" height="85" rx="4" fill="#12091f" stroke="#6633aa" stroke-width="2"/>
  <text x="820" y="335" text-anchor="middle" font-size="8" fill="#9966cc">CONSPIRE</text>
  <text x="820" y="347" text-anchor="middle" font-size="8" fill="#8855bb">DECK</text>
  <text x="820" y="360" text-anchor="middle" font-size="7" fill="#6644aa">face-down</text>

  <!-- ==================== BOTTOM: Unloading Zone ==================== -->
  <text x="480" y="770" text-anchor="middle" class="callout">⑤ Unloading Zone</text>
  <text x="480" y="785" text-anchor="middle" class="label-sm">6 Cargo Containers (BACs land here on doubles)</text>
  <rect x="290" y="795" width="380" height="50" rx="4" fill="none" stroke="#445566" stroke-width="1" stroke-dasharray="4,3"/>
  <g transform="translate(305,800)">
    <rect x="0" y="0" width="50" height="40" rx="3" fill="#2a2d38" stroke="#7788aa" stroke-width="1.5"/>
    <text x="25" y="25" text-anchor="middle" font-size="16" font-weight="bold" fill="#ffffff">1</text>
  </g>
  <g transform="translate(365,800)">
    <rect x="0" y="0" width="50" height="40" rx="3" fill="#2a2d38" stroke="#7788aa" stroke-width="1.5"/>
    <text x="25" y="25" text-anchor="middle" font-size="16" font-weight="bold" fill="#ffffff">2</text>
  </g>
  <g transform="translate(425,800)">
    <rect x="0" y="0" width="50" height="40" rx="3" fill="#2a2d38" stroke="#7788aa" stroke-width="1.5"/>
    <text x="25" y="25" text-anchor="middle" font-size="16" font-weight="bold" fill="#ffffff">3</text>
    <rect x="5" y="28" width="40" height="18" rx="2" fill="#1e2235" stroke="#8899aa" stroke-width="1" opacity="0.7"/>
    <text x="25" y="41" text-anchor="middle" font-size="6" fill="#aabbcc">BAC</text>
  </g>
  <g transform="translate(485,800)">
    <rect x="0" y="0" width="50" height="40" rx="3" fill="#2a2d38" stroke="#7788aa" stroke-width="1.5"/>
    <text x="25" y="25" text-anchor="middle" font-size="16" font-weight="bold" fill="#ffffff">4</text>
  </g>
  <g transform="translate(545,800)">
    <rect x="0" y="0" width="50" height="40" rx="3" fill="#2a2d38" stroke="#7788aa" stroke-width="1.5"/>
    <text x="25" y="25" text-anchor="middle" font-size="16" font-weight="bold" fill="#ffffff">5</text>
  </g>
  <g transform="translate(605,800)">
    <rect x="0" y="0" width="50" height="40" rx="3" fill="#2a2d38" stroke="#7788aa" stroke-width="1.5"/>
    <text x="25" y="25" text-anchor="middle" font-size="16" font-weight="bold" fill="#ffffff">6</text>
  </g>

  <!-- ==================== LEFT: Player Area ==================== -->
  <text x="120" y="145" text-anchor="middle" class="callout">⑥ Player Area</text>
  <text x="120" y="160" text-anchor="middle" class="label-sm">(each player)</text>

  <rect x="30" y="175" width="180" height="70" rx="4" fill="#1a1d23" stroke="#cc4444" stroke-width="2"/>
  <text x="120" y="192" text-anchor="middle" font-size="10" font-weight="bold" fill="#ffffff">SQUAD BOARD 1</text>
  <g transform="translate(55,200)">
    <circle cx="0" cy="0" r="5" fill="#cc4444"/>
    <circle cx="20" cy="0" r="5" fill="#cc4444"/>
    <circle cx="40" cy="0" r="5" fill="#cc4444"/>
    <circle cx="60" cy="0" r="5" fill="#cc4444"/>
    <circle cx="80" cy="0" r="5" fill="#cc4444"/>
  </g>
  <text x="120" y="225" text-anchor="middle" font-size="8" fill="#889999">5 H.A.M.S</text>

  <rect x="30" y="255" width="180" height="70" rx="4" fill="#1a1d23" stroke="#cc4444" stroke-width="2"/>
  <text x="120" y="272" text-anchor="middle" font-size="10" font-weight="bold" fill="#ffffff">SQUAD BOARD 2</text>
  <g transform="translate(55,280)">
    <circle cx="0" cy="0" r="5" fill="#cc4444"/>
    <circle cx="20" cy="0" r="5" fill="#cc4444"/>
    <circle cx="40" cy="0" r="5" fill="#cc4444"/>
    <circle cx="60" cy="0" r="5" fill="#cc4444"/>
    <circle cx="80" cy="0" r="5" fill="#cc4444"/>
  </g>
  <text x="120" y="305" text-anchor="middle" font-size="8" fill="#889999">5 H.A.M.S</text>

  <text x="120" y="355" text-anchor="middle" class="callout">⑦ Starting Hand</text>
  <text x="120" y="370" text-anchor="middle" class="label-sm">3 BAC cards (drafted)</text>
  <g transform="translate(45,380)">
    <rect x="0" y="0" width="38" height="55" rx="3" fill="#1a1d28" stroke="#556677" stroke-width="1.5"/>
    <text x="19" y="30" text-anchor="middle" font-size="8" fill="#667788">?</text>
  </g>
  <g transform="translate(90,380)">
    <rect x="0" y="0" width="38" height="55" rx="3" fill="#1a1d28" stroke="#556677" stroke-width="1.5"/>
    <text x="19" y="30" text-anchor="middle" font-size="8" fill="#667788">?</text>
  </g>
  <g transform="translate(135,380)">
    <rect x="0" y="0" width="38" height="55" rx="3" fill="#1a1d28" stroke="#556677" stroke-width="1.5"/>
    <text x="19" y="30" text-anchor="middle" font-size="8" fill="#667788">?</text>
  </g>

  <!-- ==================== BOTTOM-LEFT: Resource Supply ==================== -->
  <text x="120" y="510" text-anchor="middle" class="callout">⑧ Resource Supply</text>
  <text x="120" y="525" text-anchor="middle" class="label-sm">5 token types</text>
  <circle cx="50" cy="560" r="16" fill="#ffffff" stroke="#1a1a1a" stroke-width="3"/>
  <text x="50" y="564" text-anchor="middle" font-size="8" font-weight="bold" fill="#1a1a1a">OIL</text>
  <text x="50" y="585" text-anchor="middle" font-size="7" fill="#888">Oil</text>
  <circle cx="90" cy="560" r="16" fill="#ffffff" stroke="#f5c518" stroke-width="3"/>
  <text x="90" y="560" text-anchor="middle" font-size="7" font-weight="bold" fill="#f5c518">⚡</text>
  <text x="90" y="585" text-anchor="middle" font-size="7" fill="#888">Elec</text>
  <circle cx="130" cy="560" r="16" fill="#ffffff" stroke="#2266cc" stroke-width="3"/>
  <text x="130" y="564" text-anchor="middle" font-size="7" font-weight="bold" fill="#2266cc">INT</text>
  <text x="130" y="585" text-anchor="middle" font-size="7" fill="#888">Intel</text>
  <circle cx="170" cy="560" r="16" fill="#ffffff" stroke="#cc2222" stroke-width="3"/>
  <text x="170" y="564" text-anchor="middle" font-size="7" font-weight="bold" fill="#cc2222">IND</text>
  <text x="170" y="585" text-anchor="middle" font-size="7" fill="#888">Industry</text>
  <circle cx="210" cy="560" r="16" fill="#ffffff" stroke="#22aa44" stroke-width="3"/>
  <text x="210" y="564" text-anchor="middle" font-size="7" font-weight="bold" fill="#22aa44">FAV</text>
  <text x="210" y="585" text-anchor="middle" font-size="7" fill="#888">Favor</text>

  <!-- ==================== Setup Steps ==================== -->
  <rect x="870" y="420" width="310" height="310" rx="6" fill="#111520" stroke="#334455" stroke-width="1"/>
  <text x="1025" y="445" text-anchor="middle" class="label" font-size="13">SETUP STEPS</text>
  <line x1="885" y1="452" x2="1165" y2="452" stroke="#334455" stroke-width="1"/>
  <text x="890" y="470" class="step-num">1.</text><text x="910" y="470" class="step-text">Snap 5 puzzle pieces into frame</text>
  <text x="890" y="488" class="step-num">2.</text><text x="910" y="488" class="step-text">Shuffle 61 hexes face-down, fill entire board</text>
  <text x="890" y="506" class="step-num">3.</text><text x="910" y="506" class="step-text">Flip all hexes face-up — reveal the planet</text>
  <text x="890" y="524" class="step-num">4.</text><text x="910" y="524" class="step-text">Place 16 number tokens on resource hexes</text>
  <text x="890" y="542" class="step-num">5.</text><text x="910" y="542" class="step-text">Shuffle 100 BACs → deal 3, draft (pick 1 pass left), 6 face-up</text>
  <text x="890" y="560" class="step-num">6.</text><text x="910" y="560" class="step-text">Shuffle 72 Conspire cards face-down</text>
  <text x="890" y="578" class="step-num">7.</text><text x="910" y="578" class="step-text">Each player: 2 squad boards + 10 soldiers</text>
  <text x="890" y="596" class="step-num">8.</text><text x="910" y="596" class="step-text">Oldest player goes first (clockwise)</text>
  <text x="890" y="614" class="step-num">9.</text><text x="910" y="614" class="step-text">Snake draft: place squads on hexes</text>
  <text x="890" y="632" class="step-num">10.</text><text x="916" y="632" class="step-text">Set up Unloading Zone (6 containers)</text>
  <text x="890" y="650" class="step-num">11.</text><text x="916" y="650" class="step-text">Stock resource supply (5 token types)</text>

  <rect x="885" y="660" width="290" height="55" rx="3" fill="#0a0e15" stroke="#445566" stroke-width="1"/>
  <text x="1025" y="676" text-anchor="middle" font-size="9" fill="#f0c040">SNAKE DRAFT (Step 9)</text>
  <text x="1025" y="690" text-anchor="middle" font-size="8" fill="#aabbcc">Round 1: P1→P2→P3→P4 (place 1st squad)</text>
  <text x="1025" y="703" text-anchor="middle" font-size="8" fill="#aabbcc">Round 2: P4→P3→P2→P1 (place 2nd squad)</text>

  <!-- ==================== Connecting arrows ==================== -->
  <line x1="210" y1="230" x2="330" y2="320" stroke="#aabbcc" stroke-width="1" stroke-dasharray="4,3" marker-end="url(#arrow)"/>
  <line x1="790" y1="200" x2="680" y2="300" stroke="#aabbcc" stroke-width="1" stroke-dasharray="4,3" marker-end="url(#arrow)"/>
  <line x1="480" y1="795" x2="480" y2="680" stroke="#aabbcc" stroke-width="1" stroke-dasharray="4,3" marker-end="url(#arrow)"/>

  <!-- Footer -->
  <line x1="100" y1="870" x2="1100" y2="870" stroke="#334455" stroke-width="1"/>
  <text x="600" y="888" text-anchor="middle" font-size="10" fill="#556677">W.A.R H.A.M.S — The Battle for Planet X © Setup Diagram</text>
</svg>