<svg xmlns="http://www.w3.org/2000/svg" viewBox="0 0 800 230">
  <defs>
    <!-- Glow filters for each player color -->
    <filter id="glowRed" x="-20%" y="-20%" width="140%" height="140%">
      <feGaussianBlur in="SourceGraphic" stdDeviation="2" result="blur"/>
      <feColorMatrix in="blur" type="matrix" values="1 0 0 0 0  0 0 0 0 0  0 0 0 0 0  0 0 0 0.4 0" result="glow"/>
      <feMerge><feMergeNode in="glow"/><feMergeNode in="SourceGraphic"/></feMerge>
    </filter>
    <filter id="glowBlue" x="-20%" y="-20%" width="140%" height="140%">
      <feGaussianBlur in="SourceGraphic" stdDeviation="2" result="blur"/>
      <feColorMatrix in="blur" type="matrix" values="0 0 0 0 0  0 0.5 0 0 0  0 0 1 0 0  0 0 0 0.4 0" result="glow"/>
      <feMerge><feMergeNode in="glow"/><feMergeNode in="SourceGraphic"/></feMerge>
    </filter>
    <filter id="glowGreen" x="-20%" y="-20%" width="140%" height="140%">
      <feGaussianBlur in="SourceGraphic" stdDeviation="2" result="blur"/>
      <feColorMatrix in="blur" type="matrix" values="0 0 0 0 0  0 0.7 0 0 0  0 0 0.3 0 0  0 0 0 0.4 0" result="glow"/>
      <feMerge><feMergeNode in="glow"/><feMergeNode in="SourceGraphic"/></feMerge>
    </filter>
    <filter id="glowGold" x="-20%" y="-20%" width="140%" height="140%">
      <feGaussianBlur in="SourceGraphic" stdDeviation="2" result="blur"/>
      <feColorMatrix in="blur" type="matrix" values="1 0 0 0 0  0 0.7 0 0 0  0 0 0 0 0  0 0 0 0.4 0" result="glow"/>
      <feMerge><feMergeNode in="glow"/><feMergeNode in="SourceGraphic"/></feMerge>
    </filter>
  </defs>

  <!-- Hex geometry: flat-top hex, width=200, height=230 -->
  <!-- Hex points: center at (100,115) -->
  <!-- Flat-top hex: w=200 h=230 → points calculated for regular hexagon -->
  <!-- For a flat-top hex fitting 200x230: -->
  <!-- cx,cy = center; rx = 100 (half-width), ry = 115 (half-height) -->

  <!-- Player 1 - Red (#cc4444) -->
  <g transform="translate(0, 0)" filter="url(#glowRed)">
    <polygon
      points="50,0 150,0 200,115 150,230 50,230 0,115"
      fill="none"
      stroke="#cc4444"
      stroke-width="5"
      stroke-linejoin="round"
    />
    <!-- Inner frame line for depth -->
    <polygon
      points="55,7 145,7 193,115 145,223 55,223 7,115"
      fill="none"
      stroke="#cc4444"
      stroke-width="1.5"
      stroke-linejoin="round"
      opacity="0.4"
    />
    <!-- Corner pips -->
    <circle cx="50" cy="0" r="4" fill="#cc4444" opacity="0.8"/>
    <circle cx="150" cy="0" r="4" fill="#cc4444" opacity="0.8"/>
    <circle cx="200" cy="115" r="4" fill="#cc4444" opacity="0.8"/>
    <circle cx="150" cy="230" r="4" fill="#cc4444" opacity="0.8"/>
    <circle cx="50" cy="230" r="4" fill="#cc4444" opacity="0.8"/>
    <circle cx="0" cy="115" r="4" fill="#cc4444" opacity="0.8"/>
    <!-- Label -->
    <text x="100" y="122" text-anchor="middle" font-family="Arial, sans-serif" font-size="14" fill="#cc4444" font-weight="bold" opacity="0.6">P1</text>
  </g>

  <!-- Player 2 - Blue (#4488cc) -->
  <g transform="translate(200, 0)" filter="url(#glowBlue)">
    <polygon
      points="50,0 150,0 200,115 150,230 50,230 0,115"
      fill="none"
      stroke="#4488cc"
      stroke-width="5"
      stroke-linejoin="round"
    />
    <polygon
      points="55,7 145,7 193,115 145,223 55,223 7,115"
      fill="none"
      stroke="#4488cc"
      stroke-width="1.5"
      stroke-linejoin="round"
      opacity="0.4"
    />
    <circle cx="50" cy="0" r="4" fill="#4488cc" opacity="0.8"/>
    <circle cx="150" cy="0" r="4" fill="#4488cc" opacity="0.8"/>
    <circle cx="200" cy="115" r="4" fill="#4488cc" opacity="0.8"/>
    <circle cx="150" cy="230" r="4" fill="#4488cc" opacity="0.8"/>
    <circle cx="50" cy="230" r="4" fill="#4488cc" opacity="0.8"/>
    <circle cx="0" cy="115" r="4" fill="#4488cc" opacity="0.8"/>
    <text x="100" y="122" text-anchor="middle" font-family="Arial, sans-serif" font-size="14" fill="#4488cc" font-weight="bold" opacity="0.6">P2</text>
  </g>

  <!-- Player 3 - Green (#44aa44) -->
  <g transform="translate(400, 0)" filter="url(#glowGreen)">
    <polygon
      points="50,0 150,0 200,115 150,230 50,230 0,115"
      fill="none"
      stroke="#44aa44"
      stroke-width="5"
      stroke-linejoin="round"
    />
    <polygon
      points="55,7 145,7 193,115 145,223 55,223 7,115"
      fill="none"
      stroke="#44aa44"
      stroke-width="1.5"
      stroke-linejoin="round"
      opacity="0.4"
    />
    <circle cx="50" cy="0" r="4" fill="#44aa44" opacity="0.8"/>
    <circle cx="150" cy="0" r="4" fill="#44aa44" opacity="0.8"/>
    <circle cx="200" cy="115" r="4" fill="#44aa44" opacity="0.8"/>
    <circle cx="150" cy="230" r="4" fill="#44aa44" opacity="0.8"/>
    <circle cx="50" cy="230" r="4" fill="#44aa44" opacity="0.8"/>
    <circle cx="0" cy="115" r="4" fill="#44aa44" opacity="0.8"/>
    <text x="100" y="122" text-anchor="middle" font-family="Arial, sans-serif" font-size="14" fill="#44aa44" font-weight="bold" opacity="0.6">P3</text>
  </g>

  <!-- Player 4 - Gold (#ccaa44) -->
  <g transform="translate(600, 0)" filter="url(#glowGold)">
    <polygon
      points="50,0 150,0 200,115 150,230 50,230 0,115"
      fill="none"
      stroke="#ccaa44"
      stroke-width="5"
      stroke-linejoin="round"
    />
    <polygon
      points="55,7 145,7 193,115 145,223 55,223 7,115"
      fill="none"
      stroke="#ccaa44"
      stroke-width="1.5"
      stroke-linejoin="round"
      opacity="0.4"
    />
    <circle cx="50" cy="0" r="4" fill="#ccaa44" opacity="0.8"/>
    <circle cx="150" cy="0" r="4" fill="#ccaa44" opacity="0.8"/>
    <circle cx="200" cy="115" r="4" fill="#ccaa44" opacity="0.8"/>
    <circle cx="150" cy="230" r="4" fill="#ccaa44" opacity="0.8"/>
    <circle cx="50" cy="230" r="4" fill="#ccaa44" opacity="0.8"/>
    <circle cx="0" cy="115" r="4" fill="#ccaa44" opacity="0.8"/>
    <text x="100" y="122" text-anchor="middle" font-family="Arial, sans-serif" font-size="14" fill="#ccaa44" font-weight="bold" opacity="0.6">P4</text>
  </g>
</svg>
