<svg xmlns="http://www.w3.org/2000/svg" viewBox="0 0 600 120">
  <!-- Token 1: Oil -->
  <g transform="translate(10,5)">
    <circle cx="50" cy="50" r="47" fill="white" stroke="#1a1a1a" stroke-width="4"/>
    <rect x="32" y="24" width="36" height="42" rx="4" ry="4" fill="#1a1a1a"/>
    <rect x="30" y="32" width="40" height="4" rx="1" fill="#555"/>
    <rect x="30" y="54" width="40" height="4" rx="1" fill="#555"/>
    <circle cx="44" cy="28" r="3" fill="#555"/>
    <rect x="53" y="20" width="5" height="8" rx="1" fill="#1a1a1a"/>
    <rect x="51" y="18" width="9" height="3" rx="1" fill="#1a1a1a"/>
    <ellipse cx="55" cy="70" rx="4" ry="3" fill="#1a1a1a"/>
    <path d="M55 63 Q58 67 55 70 Q52 67 55 63Z" fill="#1a1a1a"/>
    <text x="50" y="82" text-anchor="middle" font-family="Arial,Helvetica,sans-serif" font-size="9" font-weight="bold" fill="#1a1a1a">OIL</text>
    <text x="50" y="112" text-anchor="middle" font-family="Arial,Helvetica,sans-serif" font-size="11" font-weight="bold" fill="#1a1a1a">Oil</text>
  </g>
  <!-- Token 2: Electricity -->
  <g transform="translate(125,5)">
    <circle cx="50" cy="50" r="47" fill="white" stroke="#f5c518" stroke-width="4"/>
    <polygon points="55,15 35,48 47,48 42,80 65,42 52,42" fill="#f5c518"/>
    <text x="50" y="93" text-anchor="middle" font-family="Arial,Helvetica,sans-serif" font-size="8" font-weight="bold" fill="#f5c518">ELECTRICITY</text>
    <text x="50" y="112" text-anchor="middle" font-family="Arial,Helvetica,sans-serif" font-size="11" font-weight="bold" fill="#d4a800">Electricity</text>
  </g>
  <!-- Token 3: Intelligence -->
  <g transform="translate(240,5)">
    <circle cx="50" cy="50" r="47" fill="white" stroke="#2266cc" stroke-width="4"/>
    <rect x="47" y="45" width="6" height="22" rx="2" fill="#2266cc"/>
    <rect x="40" y="65" width="20" height="4" rx="2" fill="#2266cc"/>
    <circle cx="50" cy="43" r="4" fill="#2266cc"/>
    <path d="M36 30 A20 20 0 0 1 64 30" fill="none" stroke="#2266cc" stroke-width="2.5" stroke-linecap="round"/>
    <path d="M30 22 A28 28 0 0 1 70 22" fill="none" stroke="#2266cc" stroke-width="2.5" stroke-linecap="round"/>
    <path d="M24 14 A36 36 0 0 1 76 14" fill="none" stroke="#2266cc" stroke-width="2.5" stroke-linecap="round"/>
    <text x="50" y="82" text-anchor="middle" font-family="Arial,Helvetica,sans-serif" font-size="7" font-weight="bold" fill="#2266cc">INTELLIGENCE</text>
    <text x="50" y="112" text-anchor="middle" font-family="Arial,Helvetica,sans-serif" font-size="11" font-weight="bold" fill="#2266cc">Intelligence</text>
  </g>
  <!-- Token 4: Industry -->
  <g transform="translate(355,5)">
    <circle cx="50" cy="50" r="47" fill="white" stroke="#cc2222" stroke-width="4"/>
    <rect x="28" y="22" width="28" height="14" rx="3" fill="#cc2222"/>
    <path d="M28 22 L22 16 L26 22Z" fill="#cc2222"/>
    <rect x="44" y="34" width="7" height="34" rx="2" fill="#cc2222"/>
    <line x1="44" y1="56" x2="51" y2="56" stroke="white" stroke-width="1.5"/>
    <line x1="44" y1="60" x2="51" y2="60" stroke="white" stroke-width="1.5"/>
    <line x1="44" y1="64" x2="51" y2="64" stroke="white" stroke-width="1.5"/>
    <text x="50" y="82" text-anchor="middle" font-family="Arial,Helvetica,sans-serif" font-size="8" font-weight="bold" fill="#cc2222">INDUSTRY</text>
    <text x="50" y="112" text-anchor="middle" font-family="Arial,Helvetica,sans-serif" font-size="11" font-weight="bold" fill="#cc2222">Industry</text>
  </g>
  <!-- Token 5: Local Favor -->
  <g transform="translate(470,5)">
    <circle cx="50" cy="50" r="47" fill="white" stroke="#22aa44" stroke-width="4"/>
    <circle cx="50" cy="28" r="10" fill="#22aa44"/>
    <path d="M30 68 Q30 44 50 44 Q70 44 70 68Z" fill="#22aa44"/>
    <text x="50" y="82" text-anchor="middle" font-family="Arial,Helvetica,sans-serif" font-size="7" font-weight="bold" fill="#22aa44">LOCAL FAVOR</text>
    <text x="50" y="112" text-anchor="middle" font-family="Arial,Helvetica,sans-serif" font-size="11" font-weight="bold" fill="#22aa44">Local Favor</text>
  </g>
</svg>
