<svg xmlns="http://www.w3.org/2000/svg" viewBox="0 0 900 500">
  <!-- Background -->
  <rect width="900" height="500" fill="#1a1d23"/>

  <!-- Left Sidebar -->
  <rect x="0" y="0" width="100" height="500" fill="#15171c" stroke="#556677" stroke-width="1"/>
  <text x="35" y="280" fill="#ffffff" font-family="monospace" font-size="28" font-weight="bold"
        letter-spacing="8" transform="rotate(-90 35 280)">SQUAD</text>
  <rect x="15" y="30" width="70" height="36" rx="4" fill="#2a2d33" stroke="#556677" stroke-width="1"/>
  <text x="50" y="53" fill="#ffffff" font-family="monospace" font-size="13" text-anchor="middle">SQUAD</text>
  <rect x="15" y="72" width="70" height="36" rx="4" fill="#2a2d33" stroke="#88aacc" stroke-width="1.5"/>
  <text x="50" y="95" fill="#88aacc" font-family="monospace" font-size="14" text-anchor="middle" font-weight="bold">#___</text>
  <rect x="15" y="400" width="70" height="40" rx="4" fill="#2a2d33" stroke="#ccaa33" stroke-width="1.5"/>
  <text x="50" y="416" fill="#ccaa33" font-family="monospace" font-size="10" text-anchor="middle">DEPLOY</text>
  <text x="50" y="433" fill="#ffffff" font-family="monospace" font-size="16" text-anchor="middle" font-weight="bold">DP:___</text>

  <!-- Title -->
  <text x="500" y="30" fill="#ffffff" font-family="monospace" font-size="22" font-weight="bold"
        text-anchor="middle" letter-spacing="4">SQUAD BOARD</text>
  <text x="500" y="48" fill="#667788" font-family="monospace" font-size="12"
        text-anchor="middle">SQUAD #________</text>
  <line x1="120" y1="56" x2="880" y2="56" stroke="#556677" stroke-width="0.5"/>

  <!-- Soldier Columns: 7 soldiers -->
  <!-- Soldier 1 -->
  <g transform="translate(130, 65)">
    <!-- Soldier silhouette -->
    <circle cx="45" cy="14" r="9" fill="none" stroke="#aabbcc" stroke-width="1.5"/>
    <polygon points="30,42 45,24 60,42" fill="none" stroke="#aabbcc" stroke-width="1.5"/>
    <text x="45" y="56" fill="#667788" font-family="monospace" font-size="9" text-anchor="middle">SOLDIER 1</text>
    <!-- HEAD [1] -->
    <rect x="0" y="64" width="90" height="28" rx="3" fill="#2a2d33" stroke="#556677" stroke-width="1"/>
    <text x="45" y="82" fill="#ffffff" font-family="monospace" font-size="10" text-anchor="middle">HEAD [1]</text>
    <!-- BACKPACK [2] -->
    <rect x="0" y="96" width="90" height="28" rx="3" fill="#2a2d33" stroke="#556677" stroke-width="1"/>
    <text x="45" y="114" fill="#ffffff" font-family="monospace" font-size="10" text-anchor="middle">BACKPACK [2]</text>
    <!-- LEGS [3] -->
    <rect x="0" y="128" width="90" height="28" rx="3" fill="#2a2d33" stroke="#556677" stroke-width="1"/>
    <text x="45" y="146" fill="#ffffff" font-family="monospace" font-size="10" text-anchor="middle">LEGS [3]</text>
    <!-- CHEST [4-5] -->
    <rect x="0" y="160" width="90" height="38" rx="3" fill="#2a2d33" stroke="#556677" stroke-width="1"/>
    <text x="45" y="183" fill="#ffffff" font-family="monospace" font-size="10" text-anchor="middle">CHEST [4-5]</text>
    <!-- HANDS [6] -->
    <rect x="0" y="202" width="90" height="28" rx="3" fill="#2a2d33" stroke="#556677" stroke-width="1"/>
    <text x="45" y="220" fill="#ffffff" font-family="monospace" font-size="10" text-anchor="middle">HANDS [6]</text>
    <!-- Damage tracking -->
    <text x="45" y="248" fill="#cc4444" font-family="monospace" font-size="8" text-anchor="middle">DAMAGE</text>
    <circle cx="14" cy="262" r="8" fill="#2a2d33" stroke="#cc4444" stroke-width="1.5"/>
    <circle cx="38" cy="262" r="8" fill="#2a2d33" stroke="#cc4444" stroke-width="1.5"/>
    <circle cx="62" cy="262" r="8" fill="#2a2d33" stroke="#cc4444" stroke-width="1.5"/>
    <!-- Skull (death on 4th) -->
    <circle cx="84" cy="259" r="5" fill="none" stroke="#cc4444" stroke-width="1"/>
    <line x1="80" y1="265" x2="88" y2="265" stroke="#cc4444" stroke-width="1"/>
    <text x="84" y="258" fill="#cc4444" font-family="monospace" font-size="5" text-anchor="middle">x</text>
    <text x="84" y="262" fill="#cc4444" font-family="monospace" font-size="5" text-anchor="middle">_</text>
    <text x="84" y="275" fill="#cc4444" font-family="monospace" font-size="6" text-anchor="middle">KIA</text>
  </g>

  <!-- Soldier 2 -->
  <g transform="translate(238, 65)">
    <circle cx="45" cy="14" r="9" fill="none" stroke="#aabbcc" stroke-width="1.5"/>
    <polygon points="30,42 45,24 60,42" fill="none" stroke="#aabbcc" stroke-width="1.5"/>
    <text x="45" y="56" fill="#667788" font-family="monospace" font-size="9" text-anchor="middle">SOLDIER 2</text>
    <rect x="0" y="64" width="90" height="28" rx="3" fill="#2a2d33" stroke="#556677" stroke-width="1"/>
    <text x="45" y="82" fill="#ffffff" font-family="monospace" font-size="10" text-anchor="middle">HEAD [1]</text>
    <rect x="0" y="96" width="90" height="28" rx="3" fill="#2a2d33" stroke="#556677" stroke-width="1"/>
    <text x="45" y="114" fill="#ffffff" font-family="monospace" font-size="10" text-anchor="middle">BACKPACK [2]</text>
    <rect x="0" y="128" width="90" height="28" rx="3" fill="#2a2d33" stroke="#556677" stroke-width="1"/>
    <text x="45" y="146" fill="#ffffff" font-family="monospace" font-size="10" text-anchor="middle">LEGS [3]</text>
    <rect x="0" y="160" width="90" height="38" rx="3" fill="#2a2d33" stroke="#556677" stroke-width="1"/>
    <text x="45" y="183" fill="#ffffff" font-family="monospace" font-size="10" text-anchor="middle">CHEST [4-5]</text>
    <rect x="0" y="202" width="90" height="28" rx="3" fill="#2a2d33" stroke="#556677" stroke-width="1"/>
    <text x="45" y="220" fill="#ffffff" font-family="monospace" font-size="10" text-anchor="middle">HANDS [6]</text>
    <text x="45" y="248" fill="#cc4444" font-family="monospace" font-size="8" text-anchor="middle">DAMAGE</text>
    <circle cx="14" cy="262" r="8" fill="#2a2d33" stroke="#cc4444" stroke-width="1.5"/>
    <circle cx="38" cy="262" r="8" fill="#2a2d33" stroke="#cc4444" stroke-width="1.5"/>
    <circle cx="62" cy="262" r="8" fill="#2a2d33" stroke="#cc4444" stroke-width="1.5"/>
    <circle cx="84" cy="259" r="5" fill="none" stroke="#cc4444" stroke-width="1"/>
    <line x1="80" y1="265" x2="88" y2="265" stroke="#cc4444" stroke-width="1"/>
    <text x="84" y="258" fill="#cc4444" font-family="monospace" font-size="5" text-anchor="middle">x</text>
    <text x="84" y="262" fill="#cc4444" font-family="monospace" font-size="5" text-anchor="middle">_</text>
    <text x="84" y="275" fill="#cc4444" font-family="monospace" font-size="6" text-anchor="middle">KIA</text>
  </g>

  <!-- Soldier 3 -->
  <g transform="translate(346, 65)">
    <circle cx="45" cy="14" r="9" fill="none" stroke="#aabbcc" stroke-width="1.5"/>
    <polygon points="30,42 45,24 60,42" fill="none" stroke="#aabbcc" stroke-width="1.5"/>
    <text x="45" y="56" fill="#667788" font-family="monospace" font-size="9" text-anchor="middle">SOLDIER 3</text>
    <rect x="0" y="64" width="90" height="28" rx="3" fill="#2a2d33" stroke="#556677" stroke-width="1"/>
    <text x="45" y="82" fill="#ffffff" font-family="monospace" font-size="10" text-anchor="middle">HEAD [1]</text>
    <rect x="0" y="96" width="90" height="28" rx="3" fill="#2a2d33" stroke="#556677" stroke-width="1"/>
    <text x="45" y="114" fill="#ffffff" font-family="monospace" font-size="10" text-anchor="middle">BACKPACK [2]</text>
    <rect x="0" y="128" width="90" height="28" rx="3" fill="#2a2d33" stroke="#556677" stroke-width="1"/>
    <text x="45" y="146" fill="#ffffff" font-family="monospace" font-size="10" text-anchor="middle">LEGS [3]</text>
    <rect x="0" y="160" width="90" height="38" rx="3" fill="#2a2d33" stroke="#556677" stroke-width="1"/>
    <text x="45" y="183" fill="#ffffff" font-family="monospace" font-size="10" text-anchor="middle">CHEST [4-5]</text>
    <rect x="0" y="202" width="90" height="28" rx="3" fill="#2a2d33" stroke="#556677" stroke-width="1"/>
    <text x="45" y="220" fill="#ffffff" font-family="monospace" font-size="10" text-anchor="middle">HANDS [6]</text>
    <text x="45" y="248" fill="#cc4444" font-family="monospace" font-size="8" text-anchor="middle">DAMAGE</text>
    <circle cx="14" cy="262" r="8" fill="#2a2d33" stroke="#cc4444" stroke-width="1.5"/>
    <circle cx="38" cy="262" r="8" fill="#2a2d33" stroke="#cc4444" stroke-width="1.5"/>
    <circle cx="62" cy="262" r="8" fill="#2a2d33" stroke="#cc4444" stroke-width="1.5"/>
    <circle cx="84" cy="259" r="5" fill="none" stroke="#cc4444" stroke-width="1"/>
    <line x1="80" y1="265" x2="88" y2="265" stroke="#cc4444" stroke-width="1"/>
    <text x="84" y="258" fill="#cc4444" font-family="monospace" font-size="5" text-anchor="middle">x</text>
    <text x="84" y="262" fill="#cc4444" font-family="monospace" font-size="5" text-anchor="middle">_</text>
    <text x="84" y="275" fill="#cc4444" font-family="monospace" font-size="6" text-anchor="middle">KIA</text>
  </g>

  <!-- Soldier 4 -->
  <g transform="translate(454, 65)">
    <circle cx="45" cy="14" r="9" fill="none" stroke="#aabbcc" stroke-width="1.5"/>
    <polygon points="30,42 45,24 60,42" fill="none" stroke="#aabbcc" stroke-width="1.5"/>
    <text x="45" y="56" fill="#667788" font-family="monospace" font-size="9" text-anchor="middle">SOLDIER 4</text>
    <rect x="0" y="64" width="90" height="28" rx="3" fill="#2a2d33" stroke="#556677" stroke-width="1"/>
    <text x="45" y="82" fill="#ffffff" font-family="monospace" font-size="10" text-anchor="middle">HEAD [1]</text>
    <rect x="0" y="96" width="90" height="28" rx="3" fill="#2a2d33" stroke="#556677" stroke-width="1"/>
    <text x="45" y="114" fill="#ffffff" font-family="monospace" font-size="10" text-anchor="middle">BACKPACK [2]</text>
    <rect x="0" y="128" width="90" height="28" rx="3" fill="#2a2d33" stroke="#556677" stroke-width="1"/>
    <text x="45" y="146" fill="#ffffff" font-family="monospace" font-size="10" text-anchor="middle">LEGS [3]</text>
    <rect x="0" y="160" width="90" height="38" rx="3" fill="#2a2d33" stroke="#556677" stroke-width="1"/>
    <text x="45" y="183" fill="#ffffff" font-family="monospace" font-size="10" text-anchor="middle">CHEST [4-5]</text>
    <rect x="0" y="202" width="90" height="28" rx="3" fill="#2a2d33" stroke="#556677" stroke-width="1"/>
    <text x="45" y="220" fill="#ffffff" font-family="monospace" font-size="10" text-anchor="middle">HANDS [6]</text>
    <text x="45" y="248" fill="#cc4444" font-family="monospace" font-size="8" text-anchor="middle">DAMAGE</text>
    <circle cx="14" cy="262" r="8" fill="#2a2d33" stroke="#cc4444" stroke-width="1.5"/>
    <circle cx="38" cy="262" r="8" fill="#2a2d33" stroke="#cc4444" stroke-width="1.5"/>
    <circle cx="62" cy="262" r="8" fill="#2a2d33" stroke="#cc4444" stroke-width="1.5"/>
    <circle cx="84" cy="259" r="5" fill="none" stroke="#cc4444" stroke-width="1"/>
    <line x1="80" y1="265" x2="88" y2="265" stroke="#cc4444" stroke-width="1"/>
    <text x="84" y="258" fill="#cc4444" font-family="monospace" font-size="5" text-anchor="middle">x</text>
    <text x="84" y="262" fill="#cc4444" font-family="monospace" font-size="5" text-anchor="middle">_</text>
    <text x="84" y="275" fill="#cc4444" font-family="monospace" font-size="6" text-anchor="middle">KIA</text>
  </g>

  <!-- Soldier 5 -->
  <g transform="translate(562, 65)">
    <circle cx="45" cy="14" r="9" fill="none" stroke="#aabbcc" stroke-width="1.5"/>
    <polygon points="30,42 45,24 60,42" fill="none" stroke="#aabbcc" stroke-width="1.5"/>
    <text x="45" y="56" fill="#667788" font-family="monospace" font-size="9" text-anchor="middle">SOLDIER 5</text>
    <rect x="0" y="64" width="90" height="28" rx="3" fill="#2a2d33" stroke="#556677" stroke-width="1"/>
    <text x="45" y="82" fill="#ffffff" font-family="monospace" font-size="10" text-anchor="middle">HEAD [1]</text>
    <rect x="0" y="96" width="90" height="28" rx="3" fill="#2a2d33" stroke="#556677" stroke-width="1"/>
    <text x="45" y="114" fill="#ffffff" font-family="monospace" font-size="10" text-anchor="middle">BACKPACK [2]</text>
    <rect x="0" y="128" width="90" height="28" rx="3" fill="#2a2d33" stroke="#556677" stroke-width="1"/>
    <text x="45" y="146" fill="#ffffff" font-family="monospace" font-size="10" text-anchor="middle">LEGS [3]</text>
    <rect x="0" y="160" width="90" height="38" rx="3" fill="#2a2d33" stroke="#556677" stroke-width="1"/>
    <text x="45" y="183" fill="#ffffff" font-family="monospace" font-size="10" text-anchor="middle">CHEST [4-5]</text>
    <rect x="0" y="202" width="90" height="28" rx="3" fill="#2a2d33" stroke="#556677" stroke-width="1"/>
    <text x="45" y="220" fill="#ffffff" font-family="monospace" font-size="10" text-anchor="middle">HANDS [6]</text>
    <text x="45" y="248" fill="#cc4444" font-family="monospace" font-size="8" text-anchor="middle">DAMAGE</text>
    <circle cx="14" cy="262" r="8" fill="#2a2d33" stroke="#cc4444" stroke-width="1.5"/>
    <circle cx="38" cy="262" r="8" fill="#2a2d33" stroke="#cc4444" stroke-width="1.5"/>
    <circle cx="62" cy="262" r="8" fill="#2a2d33" stroke="#cc4444" stroke-width="1.5"/>
    <circle cx="84" cy="259" r="5" fill="none" stroke="#cc4444" stroke-width="1"/>
    <line x1="80" y1="265" x2="88" y2="265" stroke="#cc4444" stroke-width="1"/>
    <text x="84" y="258" fill="#cc4444" font-family="monospace" font-size="5" text-anchor="middle">x</text>
    <text x="84" y="262" fill="#cc4444" font-family="monospace" font-size="5" text-anchor="middle">_</text>
    <text x="84" y="275" fill="#cc4444" font-family="monospace" font-size="6" text-anchor="middle">KIA</text>
  </g>

  <!-- Soldier 6 -->
  <g transform="translate(670, 65)">
    <circle cx="45" cy="14" r="9" fill="none" stroke="#aabbcc" stroke-width="1.5"/>
    <polygon points="30,42 45,24 60,42" fill="none" stroke="#aabbcc" stroke-width="1.5"/>
    <text x="45" y="56" fill="#667788" font-family="monospace" font-size="9" text-anchor="middle">SOLDIER 6</text>
    <rect x="0" y="64" width="90" height="28" rx="3" fill="#2a2d33" stroke="#556677" stroke-width="1"/>
    <text x="45" y="82" fill="#ffffff" font-family="monospace" font-size="10" text-anchor="middle">HEAD [1]</text>
    <rect x="0" y="96" width="90" height="28" rx="3" fill="#2a2d33" stroke="#556677" stroke-width="1"/>
    <text x="45" y="114" fill="#ffffff" font-family="monospace" font-size="10" text-anchor="middle">BACKPACK [2]</text>
    <rect x="0" y="128" width="90" height="28" rx="3" fill="#2a2d33" stroke="#556677" stroke-width="1"/>
    <text x="45" y="146" fill="#ffffff" font-family="monospace" font-size="10" text-anchor="middle">LEGS [3]</text>
    <rect x="0" y="160" width="90" height="38" rx="3" fill="#2a2d33" stroke="#556677" stroke-width="1"/>
    <text x="45" y="183" fill="#ffffff" font-family="monospace" font-size="10" text-anchor="middle">CHEST [4-5]</text>
    <rect x="0" y="202" width="90" height="28" rx="3" fill="#2a2d33" stroke="#556677" stroke-width="1"/>
    <text x="45" y="220" fill="#ffffff" font-family="monospace" font-size="10" text-anchor="middle">HANDS [6]</text>
    <text x="45" y="248" fill="#cc4444" font-family="monospace" font-size="8" text-anchor="middle">DAMAGE</text>
    <circle cx="14" cy="262" r="8" fill="#2a2d33" stroke="#cc4444" stroke-width="1.5"/>
    <circle cx="38" cy="262" r="8" fill="#2a2d33" stroke="#cc4444" stroke-width="1.5"/>
    <circle cx="62" cy="262" r="8" fill="#2a2d33" stroke="#cc4444" stroke-width="1.5"/>
    <circle cx="84" cy="259" r="5" fill="none" stroke="#cc4444" stroke-width="1"/>
    <line x1="80" y1="265" x2="88" y2="265" stroke="#cc4444" stroke-width="1"/>
    <text x="84" y="258" fill="#cc4444" font-family="monospace" font-size="5" text-anchor="middle">x</text>
    <text x="84" y="262" fill="#cc4444" font-family="monospace" font-size="5" text-anchor="middle">_</text>
    <text x="84" y="275" fill="#cc4444" font-family="monospace" font-size="6" text-anchor="middle">KIA</text>
  </g>

  <!-- Soldier 7 -->
  <g transform="translate(778, 65)">
    <circle cx="45" cy="14" r="9" fill="none" stroke="#aabbcc" stroke-width="1.5"/>
    <polygon points="30,42 45,24 60,42" fill="none" stroke="#aabbcc" stroke-width="1.5"/>
    <text x="45" y="56" fill="#667788" font-family="monospace" font-size="9" text-anchor="middle">SOLDIER 7</text>
    <rect x="0" y="64" width="90" height="28" rx="3" fill="#2a2d33" stroke="#556677" stroke-width="1"/>
    <text x="45" y="82" fill="#ffffff" font-family="monospace" font-size="10" text-anchor="middle">HEAD [1]</text>
    <rect x="0" y="96" width="90" height="28" rx="3" fill="#2a2d33" stroke="#556677" stroke-width="1"/>
    <text x="45" y="114" fill="#ffffff" font-family="monospace" font-size="10" text-anchor="middle">BACKPACK [2]</text>
    <rect x="0" y="128" width="90" height="28" rx="3" fill="#2a2d33" stroke="#556677" stroke-width="1"/>
    <text x="45" y="146" fill="#ffffff" font-family="monospace" font-size="10" text-anchor="middle">LEGS [3]</text>
    <rect x="0" y="160" width="90" height="38" rx="3" fill="#2a2d33" stroke="#556677" stroke-width="1"/>
    <text x="45" y="183" fill="#ffffff" font-family="monospace" font-size="10" text-anchor="middle">CHEST [4-5]</text>
    <rect x="0" y="202" width="90" height="28" rx="3" fill="#2a2d33" stroke="#556677" stroke-width="1"/>
    <text x="45" y="220" fill="#ffffff" font-family="monospace" font-size="10" text-anchor="middle">HANDS [6]</text>
    <text x="45" y="248" fill="#cc4444" font-family="monospace" font-size="8" text-anchor="middle">DAMAGE</text>
    <circle cx="14" cy="262" r="8" fill="#2a2d33" stroke="#cc4444" stroke-width="1.5"/>
    <circle cx="38" cy="262" r="8" fill="#2a2d33" stroke="#cc4444" stroke-width="1.5"/>
    <circle cx="62" cy="262" r="8" fill="#2a2d33" stroke="#cc4444" stroke-width="1.5"/>
    <circle cx="84" cy="259" r="5" fill="none" stroke="#cc4444" stroke-width="1"/>
    <line x1="80" y1="265" x2="88" y2="265" stroke="#cc4444" stroke-width="1"/>
    <text x="84" y="258" fill="#cc4444" font-family="monospace" font-size="5" text-anchor="middle">x</text>
    <text x="84" y="262" fill="#cc4444" font-family="monospace" font-size="5" text-anchor="middle">_</text>
    <text x="84" y="275" fill="#cc4444" font-family="monospace" font-size="6" text-anchor="middle">KIA</text>
  </g>

  <!-- Vertical divider lines between soldiers -->
  <line x1="228" y1="65" x2="228" y2="410" stroke="#333844" stroke-width="0.5" stroke-dasharray="4,4"/>
  <line x1="336" y1="65" x2="336" y2="410" stroke="#333844" stroke-width="0.5" stroke-dasharray="4,4"/>
  <line x1="444" y1="65" x2="444" y2="410" stroke="#333844" stroke-width="0.5" stroke-dasharray="4,4"/>
  <line x1="552" y1="65" x2="552" y2="410" stroke="#333844" stroke-width="0.5" stroke-dasharray="4,4"/>
  <line x1="660" y1="65" x2="660" y2="410" stroke="#333844" stroke-width="0.5" stroke-dasharray="4,4"/>
  <line x1="768" y1="65" x2="768" y2="410" stroke="#333844" stroke-width="0.5" stroke-dasharray="4,4"/>

  <!-- Equipment slot legend (bottom area) -->
  <rect x="110" y="420" width="780" height="36" rx="4" fill="#15171c" stroke="#333844" stroke-width="0.5"/>
  <text x="140" y="441" fill="#556677" font-family="monospace" font-size="9">DIE ROLL:</text>
  <text x="220" y="441" fill="#88aacc" font-family="monospace" font-size="9">1=HEAD  2=BACKPACK  3=LEGS  4-5=CHEST  6=HANDS</text>
  <text x="660" y="441" fill="#556677" font-family="monospace" font-size="9">|</text>
  <text x="680" y="441" fill="#cc4444" font-family="monospace" font-size="9">3 WOUNDS = DOWN  |  4th = KIA</text>

  <!-- Bottom accent line -->
  <line x1="0" y1="470" x2="900" y2="470" stroke="#556677" stroke-width="1"/>
  <line x1="0" y1="472" x2="900" y2="472" stroke="#333844" stroke-width="0.5"/>

  <!-- Bottom branding -->
  <text x="450" y="490" fill="#445566" font-family="monospace" font-size="12" text-anchor="middle"
        letter-spacing="6">W.A.R  H.A.M.S</text>

  <!-- Border -->
  <rect x="1" y="1" width="898" height="498" fill="none" stroke="#556677" stroke-width="2" rx="4"/>
</svg>
