<svg xmlns="http://www.w3.org/2000/svg" viewBox="0 0 900 270">
  <!-- Background -->
  <rect width="900" height="270" fill="#1a1d23"/>

  <!-- Left Sidebar -->
  <rect x="0" y="0" width="100" height="270" fill="#15171c" stroke="#556677" stroke-width="1"/>
  <text x="50" y="30" fill="#ffffff" font-family="monospace" font-size="14" text-anchor="middle" font-weight="bold">SQUAD</text>
  <rect x="15" y="42" width="70" height="32" rx="4" fill="#2a2d33" stroke="#88aacc" stroke-width="1.5"/>
  <text x="50" y="63" fill="#88aacc" font-family="monospace" font-size="18" text-anchor="middle" font-weight="bold">_</text>

  <rect x="15" y="90" width="70" height="36" rx="4" fill="#2a2d33" stroke="#ccaa33" stroke-width="1.5"/>
  <text x="50" y="106" fill="#ccaa33" font-family="monospace" font-size="10" text-anchor="middle">DOMINANCE</text>
  <text x="50" y="121" fill="#ffffff" font-family="monospace" font-size="14" text-anchor="middle" font-weight="bold">DP:___</text>

  <!-- Title -->
  <text x="500" y="28" fill="#ffffff" font-family="monospace" font-size="18" font-weight="bold"
        text-anchor="middle" letter-spacing="4">SQUAD BOARD</text>
  <line x1="120" y1="38" x2="880" y2="38" stroke="#556677" stroke-width="0.5"/>

  <!-- Soldier 1 -->
  <g transform="translate(130, 48)">
    <circle cx="45" cy="14" r="9" fill="none" stroke="#aabbcc" stroke-width="1.5"/>
    <polygon points="30,42 45,24 60,42" fill="none" stroke="#aabbcc" stroke-width="1.5"/>
    <text x="45" y="58" fill="#88aacc" font-family="monospace" font-size="12" text-anchor="middle" font-weight="bold">_1</text>
    <text x="45" y="78" fill="#cc4444" font-family="monospace" font-size="8" text-anchor="middle">DAMAGE</text>
    <circle cx="14" cy="94" r="10" fill="#2a2d33" stroke="#cc4444" stroke-width="1.5"/>
    <circle cx="42" cy="94" r="10" fill="#2a2d33" stroke="#cc4444" stroke-width="1.5"/>
    <circle cx="70" cy="94" r="10" fill="#2a2d33" stroke="#cc4444" stroke-width="1.5"/>
    <text x="45" y="120" fill="#cc4444" font-family="monospace" font-size="10" text-anchor="middle" font-weight="bold">☠ KIA</text>
  </g>

  <!-- Soldier 2 -->
  <g transform="translate(238, 48)">
    <circle cx="45" cy="14" r="9" fill="none" stroke="#aabbcc" stroke-width="1.5"/>
    <polygon points="30,42 45,24 60,42" fill="none" stroke="#aabbcc" stroke-width="1.5"/>
    <text x="45" y="58" fill="#88aacc" font-family="monospace" font-size="12" text-anchor="middle" font-weight="bold">_2</text>
    <text x="45" y="78" fill="#cc4444" font-family="monospace" font-size="8" text-anchor="middle">DAMAGE</text>
    <circle cx="14" cy="94" r="10" fill="#2a2d33" stroke="#cc4444" stroke-width="1.5"/>
    <circle cx="42" cy="94" r="10" fill="#2a2d33" stroke="#cc4444" stroke-width="1.5"/>
    <circle cx="70" cy="94" r="10" fill="#2a2d33" stroke="#cc4444" stroke-width="1.5"/>
    <text x="45" y="120" fill="#cc4444" font-family="monospace" font-size="10" text-anchor="middle" font-weight="bold">☠ KIA</text>
  </g>

  <!-- Soldier 3 -->
  <g transform="translate(346, 48)">
    <circle cx="45" cy="14" r="9" fill="none" stroke="#aabbcc" stroke-width="1.5"/>
    <polygon points="30,42 45,24 60,42" fill="none" stroke="#aabbcc" stroke-width="1.5"/>
    <text x="45" y="58" fill="#88aacc" font-family="monospace" font-size="12" text-anchor="middle" font-weight="bold">_3</text>
    <text x="45" y="78" fill="#cc4444" font-family="monospace" font-size="8" text-anchor="middle">DAMAGE</text>
    <circle cx="14" cy="94" r="10" fill="#2a2d33" stroke="#cc4444" stroke-width="1.5"/>
    <circle cx="42" cy="94" r="10" fill="#2a2d33" stroke="#cc4444" stroke-width="1.5"/>
    <circle cx="70" cy="94" r="10" fill="#2a2d33" stroke="#cc4444" stroke-width="1.5"/>
    <text x="45" y="120" fill="#cc4444" font-family="monospace" font-size="10" text-anchor="middle" font-weight="bold">☠ KIA</text>
  </g>

  <!-- Soldier 4 -->
  <g transform="translate(454, 48)">
    <circle cx="45" cy="14" r="9" fill="none" stroke="#aabbcc" stroke-width="1.5"/>
    <polygon points="30,42 45,24 60,42" fill="none" stroke="#aabbcc" stroke-width="1.5"/>
    <text x="45" y="58" fill="#88aacc" font-family="monospace" font-size="12" text-anchor="middle" font-weight="bold">_4</text>
    <text x="45" y="78" fill="#cc4444" font-family="monospace" font-size="8" text-anchor="middle">DAMAGE</text>
    <circle cx="14" cy="94" r="10" fill="#2a2d33" stroke="#cc4444" stroke-width="1.5"/>
    <circle cx="42" cy="94" r="10" fill="#2a2d33" stroke="#cc4444" stroke-width="1.5"/>
    <circle cx="70" cy="94" r="10" fill="#2a2d33" stroke="#cc4444" stroke-width="1.5"/>
    <text x="45" y="120" fill="#cc4444" font-family="monospace" font-size="10" text-anchor="middle" font-weight="bold">☠ KIA</text>
  </g>

  <!-- Soldier 5 -->
  <g transform="translate(562, 48)">
    <circle cx="45" cy="14" r="9" fill="none" stroke="#aabbcc" stroke-width="1.5"/>
    <polygon points="30,42 45,24 60,42" fill="none" stroke="#aabbcc" stroke-width="1.5"/>
    <text x="45" y="58" fill="#88aacc" font-family="monospace" font-size="12" text-anchor="middle" font-weight="bold">_5</text>
    <text x="45" y="78" fill="#cc4444" font-family="monospace" font-size="8" text-anchor="middle">DAMAGE</text>
    <circle cx="14" cy="94" r="10" fill="#2a2d33" stroke="#cc4444" stroke-width="1.5"/>
    <circle cx="42" cy="94" r="10" fill="#2a2d33" stroke="#cc4444" stroke-width="1.5"/>
    <circle cx="70" cy="94" r="10" fill="#2a2d33" stroke="#cc4444" stroke-width="1.5"/>
    <text x="45" y="120" fill="#cc4444" font-family="monospace" font-size="10" text-anchor="middle" font-weight="bold">☠ KIA</text>
  </g>

  <!-- Soldier 6 -->
  <g transform="translate(670, 48)">
    <circle cx="45" cy="14" r="9" fill="none" stroke="#aabbcc" stroke-width="1.5"/>
    <polygon points="30,42 45,24 60,42" fill="none" stroke="#aabbcc" stroke-width="1.5"/>
    <text x="45" y="58" fill="#88aacc" font-family="monospace" font-size="12" text-anchor="middle" font-weight="bold">_6</text>
    <text x="45" y="78" fill="#cc4444" font-family="monospace" font-size="8" text-anchor="middle">DAMAGE</text>
    <circle cx="14" cy="94" r="10" fill="#2a2d33" stroke="#cc4444" stroke-width="1.5"/>
    <circle cx="42" cy="94" r="10" fill="#2a2d33" stroke="#cc4444" stroke-width="1.5"/>
    <circle cx="70" cy="94" r="10" fill="#2a2d33" stroke="#cc4444" stroke-width="1.5"/>
    <text x="45" y="120" fill="#cc4444" font-family="monospace" font-size="10" text-anchor="middle" font-weight="bold">☠ KIA</text>
  </g>

  <!-- Soldier 7 -->
  <g transform="translate(778, 48)">
    <circle cx="45" cy="14" r="9" fill="none" stroke="#aabbcc" stroke-width="1.5"/>
    <polygon points="30,42 45,24 60,42" fill="none" stroke="#aabbcc" stroke-width="1.5"/>
    <text x="45" y="58" fill="#88aacc" font-family="monospace" font-size="12" text-anchor="middle" font-weight="bold">_7</text>
    <text x="45" y="78" fill="#cc4444" font-family="monospace" font-size="8" text-anchor="middle">DAMAGE</text>
    <circle cx="14" cy="94" r="10" fill="#2a2d33" stroke="#cc4444" stroke-width="1.5"/>
    <circle cx="42" cy="94" r="10" fill="#2a2d33" stroke="#cc4444" stroke-width="1.5"/>
    <circle cx="70" cy="94" r="10" fill="#2a2d33" stroke="#cc4444" stroke-width="1.5"/>
    <text x="45" y="120" fill="#cc4444" font-family="monospace" font-size="10" text-anchor="middle" font-weight="bold">☠ KIA</text>
  </g>

  <!-- Vertical divider lines between soldiers -->
  <line x1="228" y1="48" x2="228" y2="185" stroke="#333844" stroke-width="0.5" stroke-dasharray="4,4"/>
  <line x1="336" y1="48" x2="336" y2="185" stroke="#333844" stroke-width="0.5" stroke-dasharray="4,4"/>
  <line x1="444" y1="48" x2="444" y2="185" stroke="#333844" stroke-width="0.5" stroke-dasharray="4,4"/>
  <line x1="552" y1="48" x2="552" y2="185" stroke="#333844" stroke-width="0.5" stroke-dasharray="4,4"/>
  <line x1="660" y1="48" x2="660" y2="185" stroke="#333844" stroke-width="0.5" stroke-dasharray="4,4"/>
  <line x1="768" y1="48" x2="768" y2="185" stroke="#333844" stroke-width="0.5" stroke-dasharray="4,4"/>

  <!-- Lethal Hit legend (bottom area) -->
  <rect x="110" y="195" width="780" height="36" rx="4" fill="#15171c" stroke="#333844" stroke-width="0.5"/>
  <text x="140" y="217" fill="#556677" font-family="monospace" font-size="9">LETHAL HIT:</text>
  <text x="230" y="217" fill="#88aacc" font-family="monospace" font-size="9">⚀ HEAD   ⚁ BACKPACK   ⚂ LEGS   ⚃⚄ CHEST   ⚅ HANDS</text>

  <!-- Bottom accent line -->
  <line x1="0" y1="242" x2="900" y2="242" stroke="#556677" stroke-width="1"/>
  <line x1="0" y1="244" x2="900" y2="244" stroke="#333844" stroke-width="0.5"/>

  <!-- Bottom branding -->
  <text x="450" y="260" fill="#445566" font-family="monospace" font-size="12" text-anchor="middle"
        letter-spacing="6">W.A.R  H.A.M.S</text>

  <!-- Border -->
  <rect x="1" y="1" width="898" height="268" fill="none" stroke="#556677" stroke-width="2" rx="4"/>
</svg>
