# W.A.R.H.A.M.S 3D flag mesh
o Flag
v 0.12000 -0.06000 0.00000
v 0.12000 0.00000 0.00000
v 0.11087 -0.06000 0.04592
v 0.11087 0.00000 0.04592
v 0.08485 -0.06000 0.08485
v 0.08485 0.00000 0.08485
v 0.04592 -0.06000 0.11087
v 0.04592 0.00000 0.11087
v 0.00000 -0.06000 0.12000
v 0.00000 0.00000 0.12000
v -0.04592 -0.06000 0.11087
v -0.04592 0.00000 0.11087
v -0.08485 -0.06000 0.08485
v -0.08485 0.00000 0.08485
v -0.11087 -0.06000 0.04592
v -0.11087 0.00000 0.04592
v -0.12000 -0.06000 0.00000
v -0.12000 0.00000 0.00000
v -0.11087 -0.06000 -0.04592
v -0.11087 0.00000 -0.04592
v -0.08485 -0.06000 -0.08485
v -0.08485 0.00000 -0.08485
v -0.04592 -0.06000 -0.11087
v -0.04592 0.00000 -0.11087
v -0.00000 -0.06000 -0.12000
v -0.00000 0.00000 -0.12000
v 0.04592 -0.06000 -0.11087
v 0.04592 0.00000 -0.11087
v 0.08485 -0.06000 -0.08485
v 0.08485 0.00000 -0.08485
v 0.11087 -0.06000 -0.04592
v 0.11087 0.00000 -0.04592
v 0.00000 -0.06000 0.00000
v 0.00000 0.00000 0.00000
v 0.45000 0.00000 0.00000
v 0.45000 0.08000 0.00000
v 0.41575 0.00000 0.17221
v 0.41575 0.08000 0.17221
v 0.31820 0.00000 0.31820
v 0.31820 0.08000 0.31820
v 0.17221 0.00000 0.41575
v 0.17221 0.08000 0.41575
v 0.00000 0.00000 0.45000
v 0.00000 0.08000 0.45000
v -0.17221 0.00000 0.41575
v -0.17221 0.08000 0.41575
v -0.31820 0.00000 0.31820
v -0.31820 0.08000 0.31820
v -0.41575 0.00000 0.17221
v -0.41575 0.08000 0.17221
v -0.45000 0.00000 0.00000
v -0.45000 0.08000 0.00000
v -0.41575 0.00000 -0.17221
v -0.41575 0.08000 -0.17221
v -0.31820 0.00000 -0.31820
v -0.31820 0.08000 -0.31820
v -0.17221 0.00000 -0.41575
v -0.17221 0.08000 -0.41575
v -0.00000 0.00000 -0.45000
v -0.00000 0.08000 -0.45000
v 0.17221 0.00000 -0.41575
v 0.17221 0.08000 -0.41575
v 0.31820 0.00000 -0.31820
v 0.31820 0.08000 -0.31820
v 0.41575 0.00000 -0.17221
v 0.41575 0.08000 -0.17221
v 0.00000 0.00000 0.00000
v 0.00000 0.08000 0.00000
v 0.05000 0.08000 0.00000
v 0.05000 1.55000 0.00000
v 0.04619 0.08000 0.01913
v 0.04619 1.55000 0.01913
v 0.03536 0.08000 0.03536
v 0.03536 1.55000 0.03536
v 0.01913 0.08000 0.04619
v 0.01913 1.55000 0.04619
v 0.00000 0.08000 0.05000
v 0.00000 1.55000 0.05000
v -0.01913 0.08000 0.04619
v -0.01913 1.55000 0.04619
v -0.03536 0.08000 0.03536
v -0.03536 1.55000 0.03536
v -0.04619 0.08000 0.01913
v -0.04619 1.55000 0.01913
v -0.05000 0.08000 0.00000
v -0.05000 1.55000 0.00000
v -0.04619 0.08000 -0.01913
v -0.04619 1.55000 -0.01913
v -0.03536 0.08000 -0.03536
v -0.03536 1.55000 -0.03536
v -0.01913 0.08000 -0.04619
v -0.01913 1.55000 -0.04619
v -0.00000 0.08000 -0.05000
v -0.00000 1.55000 -0.05000
v 0.01913 0.08000 -0.04619
v 0.01913 1.55000 -0.04619
v 0.03536 0.08000 -0.03536
v 0.03536 1.55000 -0.03536
v 0.04619 0.08000 -0.01913
v 0.04619 1.55000 -0.01913
v 0.00000 0.08000 0.00000
v 0.00000 1.55000 0.00000
v 0.05000 1.50000 0.01250
v 0.90000 1.50000 0.01250
v 0.78000 1.27500 0.01250
v 0.90000 1.05000 0.01250
v 0.05000 1.05000 0.01250
v 0.05000 1.50000 -0.01250
v 0.90000 1.50000 -0.01250
v 0.78000 1.27500 -0.01250
v 0.90000 1.05000 -0.01250
v 0.05000 1.05000 -0.01250
v 0.00000 1.65000 0.00000
v 0.00000 1.65000 0.00000
v 0.00000 1.65000 0.00000
v 0.00000 1.65000 0.00000
v 0.00000 1.65000 0.00000
v 0.00000 1.65000 0.00000
v 0.00000 1.65000 0.00000
v 0.00000 1.65000 0.00000
v 0.00000 1.65000 0.00000
v 0.00000 1.65000 0.00000
v 0.00000 1.65000 0.00000
v 0.00000 1.65000 0.00000
v 0.02296 1.64543 0.00000
v 0.01988 1.64543 0.01148
v 0.01148 1.64543 0.01988
v 0.00000 1.64543 0.02296
v -0.01148 1.64543 0.01988
v -0.01988 1.64543 0.01148
v -0.02296 1.64543 0.00000
v -0.01988 1.64543 -0.01148
v -0.01148 1.64543 -0.01988
v -0.00000 1.64543 -0.02296
v 0.01148 1.64543 -0.01988
v 0.01988 1.64543 -0.01148
v 0.04243 1.63243 0.00000
v 0.03674 1.63243 0.02121
v 0.02121 1.63243 0.03674
v 0.00000 1.63243 0.04243
v -0.02121 1.63243 0.03674
v -0.03674 1.63243 0.02121
v -0.04243 1.63243 0.00000
v -0.03674 1.63243 -0.02121
v -0.02121 1.63243 -0.03674
v -0.00000 1.63243 -0.04243
v 0.02121 1.63243 -0.03674
v 0.03674 1.63243 -0.02121
v 0.05543 1.61296 0.00000
v 0.04801 1.61296 0.02772
v 0.02772 1.61296 0.04801
v 0.00000 1.61296 0.05543
v -0.02772 1.61296 0.04801
v -0.04801 1.61296 0.02772
v -0.05543 1.61296 0.00000
v -0.04801 1.61296 -0.02772
v -0.02772 1.61296 -0.04801
v -0.00000 1.61296 -0.05543
v 0.02772 1.61296 -0.04801
v 0.04801 1.61296 -0.02772
v 0.06000 1.59000 0.00000
v 0.05196 1.59000 0.03000
v 0.03000 1.59000 0.05196
v 0.00000 1.59000 0.06000
v -0.03000 1.59000 0.05196
v -0.05196 1.59000 0.03000
v -0.06000 1.59000 0.00000
v -0.05196 1.59000 -0.03000
v -0.03000 1.59000 -0.05196
v -0.00000 1.59000 -0.06000
v 0.03000 1.59000 -0.05196
v 0.05196 1.59000 -0.03000
v 0.05543 1.56704 0.00000
v 0.04801 1.56704 0.02772
v 0.02772 1.56704 0.04801
v 0.00000 1.56704 0.05543
v -0.02772 1.56704 0.04801
v -0.04801 1.56704 0.02772
v -0.05543 1.56704 0.00000
v -0.04801 1.56704 -0.02772
v -0.02772 1.56704 -0.04801
v -0.00000 1.56704 -0.05543
v 0.02772 1.56704 -0.04801
v 0.04801 1.56704 -0.02772
v 0.04243 1.54757 0.00000
v 0.03674 1.54757 0.02121
v 0.02121 1.54757 0.03674
v 0.00000 1.54757 0.04243
v -0.02121 1.54757 0.03674
v -0.03674 1.54757 0.02121
v -0.04243 1.54757 0.00000
v -0.03674 1.54757 -0.02121
v -0.02121 1.54757 -0.03674
v -0.00000 1.54757 -0.04243
v 0.02121 1.54757 -0.03674
v 0.03674 1.54757 -0.02121
v 0.02296 1.53457 0.00000
v 0.01988 1.53457 0.01148
v 0.01148 1.53457 0.01988
v 0.00000 1.53457 0.02296
v -0.01148 1.53457 0.01988
v -0.01988 1.53457 0.01148
v -0.02296 1.53457 0.00000
v -0.01988 1.53457 -0.01148
v -0.01148 1.53457 -0.01988
v -0.00000 1.53457 -0.02296
v 0.01148 1.53457 -0.01988
v 0.01988 1.53457 -0.01148
v 0.00000 1.53000 0.00000
v 0.00000 1.53000 0.00000
v 0.00000 1.53000 0.00000
v 0.00000 1.53000 0.00000
v -0.00000 1.53000 0.00000
v -0.00000 1.53000 0.00000
v -0.00000 1.53000 0.00000
v -0.00000 1.53000 -0.00000
v -0.00000 1.53000 -0.00000
v -0.00000 1.53000 -0.00000
v 0.00000 1.53000 -0.00000
v 0.00000 1.53000 -0.00000
f 1 3 4
f 1 4 2
f 3 5 6
f 3 6 4
f 5 7 8
f 5 8 6
f 7 9 10
f 7 10 8
f 9 11 12
f 9 12 10
f 11 13 14
f 11 14 12
f 13 15 16
f 13 16 14
f 15 17 18
f 15 18 16
f 17 19 20
f 17 20 18
f 19 21 22
f 19 22 20
f 21 23 24
f 21 24 22
f 23 25 26
f 23 26 24
f 25 27 28
f 25 28 26
f 27 29 30
f 27 30 28
f 29 31 32
f 29 32 30
f 31 1 2
f 31 2 32
f 33 3 1
f 33 5 3
f 33 7 5
f 33 9 7
f 33 11 9
f 33 13 11
f 33 15 13
f 33 17 15
f 33 19 17
f 33 21 19
f 33 23 21
f 33 25 23
f 33 27 25
f 33 29 27
f 33 31 29
f 33 1 31
f 34 2 4
f 34 4 6
f 34 6 8
f 34 8 10
f 34 10 12
f 34 12 14
f 34 14 16
f 34 16 18
f 34 18 20
f 34 20 22
f 34 22 24
f 34 24 26
f 34 26 28
f 34 28 30
f 34 30 32
f 34 32 2
f 35 37 38
f 35 38 36
f 37 39 40
f 37 40 38
f 39 41 42
f 39 42 40
f 41 43 44
f 41 44 42
f 43 45 46
f 43 46 44
f 45 47 48
f 45 48 46
f 47 49 50
f 47 50 48
f 49 51 52
f 49 52 50
f 51 53 54
f 51 54 52
f 53 55 56
f 53 56 54
f 55 57 58
f 55 58 56
f 57 59 60
f 57 60 58
f 59 61 62
f 59 62 60
f 61 63 64
f 61 64 62
f 63 65 66
f 63 66 64
f 65 35 36
f 65 36 66
f 67 37 35
f 67 39 37
f 67 41 39
f 67 43 41
f 67 45 43
f 67 47 45
f 67 49 47
f 67 51 49
f 67 53 51
f 67 55 53
f 67 57 55
f 67 59 57
f 67 61 59
f 67 63 61
f 67 65 63
f 67 35 65
f 68 36 38
f 68 38 40
f 68 40 42
f 68 42 44
f 68 44 46
f 68 46 48
f 68 48 50
f 68 50 52
f 68 52 54
f 68 54 56
f 68 56 58
f 68 58 60
f 68 60 62
f 68 62 64
f 68 64 66
f 68 66 36
f 69 71 72
f 69 72 70
f 71 73 74
f 71 74 72
f 73 75 76
f 73 76 74
f 75 77 78
f 75 78 76
f 77 79 80
f 77 80 78
f 79 81 82
f 79 82 80
f 81 83 84
f 81 84 82
f 83 85 86
f 83 86 84
f 85 87 88
f 85 88 86
f 87 89 90
f 87 90 88
f 89 91 92
f 89 92 90
f 91 93 94
f 91 94 92
f 93 95 96
f 93 96 94
f 95 97 98
f 95 98 96
f 97 99 100
f 97 100 98
f 99 69 70
f 99 70 100
f 101 71 69
f 101 73 71
f 101 75 73
f 101 77 75
f 101 79 77
f 101 81 79
f 101 83 81
f 101 85 83
f 101 87 85
f 101 89 87
f 101 91 89
f 101 93 91
f 101 95 93
f 101 97 95
f 101 99 97
f 101 69 99
f 102 70 72
f 102 72 74
f 102 74 76
f 102 76 78
f 102 78 80
f 102 80 82
f 102 82 84
f 102 84 86
f 102 86 88
f 102 88 90
f 102 90 92
f 102 92 94
f 102 94 96
f 102 96 98
f 102 98 100
f 102 100 70
f 103 104 105
f 103 105 106
f 103 106 107
f 108 110 109
f 108 111 110
f 108 112 111
f 103 108 109
f 103 109 104
f 104 109 110
f 104 110 105
f 105 110 111
f 105 111 106
f 106 111 112
f 106 112 107
f 107 112 108
f 107 108 103
f 113 125 126
f 113 126 114
f 114 126 127
f 114 127 115
f 115 127 128
f 115 128 116
f 116 128 129
f 116 129 117
f 117 129 130
f 117 130 118
f 118 130 131
f 118 131 119
f 119 131 132
f 119 132 120
f 120 132 133
f 120 133 121
f 121 133 134
f 121 134 122
f 122 134 135
f 122 135 123
f 123 135 136
f 123 136 124
f 124 136 125
f 124 125 113
f 125 137 138
f 125 138 126
f 126 138 139
f 126 139 127
f 127 139 140
f 127 140 128
f 128 140 141
f 128 141 129
f 129 141 142
f 129 142 130
f 130 142 143
f 130 143 131
f 131 143 144
f 131 144 132
f 132 144 145
f 132 145 133
f 133 145 146
f 133 146 134
f 134 146 147
f 134 147 135
f 135 147 148
f 135 148 136
f 136 148 137
f 136 137 125
f 137 149 150
f 137 150 138
f 138 150 151
f 138 151 139
f 139 151 152
f 139 152 140
f 140 152 153
f 140 153 141
f 141 153 154
f 141 154 142
f 142 154 155
f 142 155 143
f 143 155 156
f 143 156 144
f 144 156 157
f 144 157 145
f 145 157 158
f 145 158 146
f 146 158 159
f 146 159 147
f 147 159 160
f 147 160 148
f 148 160 149
f 148 149 137
f 149 161 162
f 149 162 150
f 150 162 163
f 150 163 151
f 151 163 164
f 151 164 152
f 152 164 165
f 152 165 153
f 153 165 166
f 153 166 154
f 154 166 167
f 154 167 155
f 155 167 168
f 155 168 156
f 156 168 169
f 156 169 157
f 157 169 170
f 157 170 158
f 158 170 171
f 158 171 159
f 159 171 172
f 159 172 160
f 160 172 161
f 160 161 149
f 161 173 174
f 161 174 162
f 162 174 175
f 162 175 163
f 163 175 176
f 163 176 164
f 164 176 177
f 164 177 165
f 165 177 178
f 165 178 166
f 166 178 179
f 166 179 167
f 167 179 180
f 167 180 168
f 168 180 181
f 168 181 169
f 169 181 182
f 169 182 170
f 170 182 183
f 170 183 171
f 171 183 184
f 171 184 172
f 172 184 173
f 172 173 161
f 173 185 186
f 173 186 174
f 174 186 187
f 174 187 175
f 175 187 188
f 175 188 176
f 176 188 189
f 176 189 177
f 177 189 190
f 177 190 178
f 178 190 191
f 178 191 179
f 179 191 192
f 179 192 180
f 180 192 193
f 180 193 181
f 181 193 194
f 181 194 182
f 182 194 195
f 182 195 183
f 183 195 196
f 183 196 184
f 184 196 185
f 184 185 173
f 185 197 198
f 185 198 186
f 186 198 199
f 186 199 187
f 187 199 200
f 187 200 188
f 188 200 201
f 188 201 189
f 189 201 202
f 189 202 190
f 190 202 203
f 190 203 191
f 191 203 204
f 191 204 192
f 192 204 205
f 192 205 193
f 193 205 206
f 193 206 194
f 194 206 207
f 194 207 195
f 195 207 208
f 195 208 196
f 196 208 197
f 196 197 185
f 197 209 210
f 197 210 198
f 198 210 211
f 198 211 199
f 199 211 212
f 199 212 200
f 200 212 213
f 200 213 201
f 201 213 214
f 201 214 202
f 202 214 215
f 202 215 203
f 203 215 216
f 203 216 204
f 204 216 217
f 204 217 205
f 205 217 218
f 205 218 206
f 206 218 219
f 206 219 207
f 207 219 220
f 207 220 208
f 208 220 209
f 208 209 197
